<svg width="168" height="168" viewBox="0 0 168 168" fill="none" xmlns="http://www.w3.org/2000/svg">
<path opacity="0.7" d="M123 84C123 105.539 105.539 123 84 123C62.4609 123 45 105.539 45 84C45 62.4609 62.4609 45 84 45C105.539 45 123 62.4609 123 84ZM63.525 84C63.525 95.308 72.692 104.475 84 104.475C95.308 104.475 104.475 95.308 104.475 84C104.475 72.692 95.308 63.525 84 63.525C72.692 63.525 63.525 72.692 63.525 84Z" fill="white"/>
<path opacity="0.5" d="M142 84C142 116.033 116.033 142 84 142C51.9675 142 26 116.033 26 84C26 51.9675 51.9675 26 84 26C116.033 26 142 51.9675 142 84ZM44.9411 84C44.9411 105.572 62.4284 123.059 84 123.059C105.572 123.059 123.059 105.572 123.059 84C123.059 62.4284 105.572 44.9411 84 44.9411C62.4284 44.9411 44.9411 62.4284 44.9411 84Z" fill="white"/>
<path opacity="0.2" d="M168 84C168 130.392 130.392 168 84 168C37.6081 168 0 130.392 0 84C0 37.6081 37.6081 0 84 0C130.392 0 168 37.6081 168 84ZM26.0035 84C26.0035 116.031 51.9694 141.997 84 141.997C116.031 141.997 141.997 116.031 141.997 84C141.997 51.9694 116.031 26.0035 84 26.0035C51.9694 26.0035 26.0035 51.9694 26.0035 84Z" fill="white"/>
</svg>
