<svg width="31" height="20" viewBox="0 0 31 20" fill="none" xmlns="http://www.w3.org/2000/svg">
<path d="M23.6214 3.76611H20.3789V19.4078H23.6214V3.76611Z" fill="#DBDBDB"/>
<path d="M21.5129 4.27417H20.8826V4.87141H21.5129V4.27417Z" fill="#EBEBEB"/>
<path d="M22.319 4.27405H21.6887V4.87129H22.319V4.27405Z" fill="#EBEBEB"/>
<path d="M21.5126 5.28809H20.8823V5.88533H21.5126V5.28809Z" fill="#EBEBEB"/>
<path d="M22.319 5.28809H21.6887V5.88533H22.319V5.28809Z" fill="#EBEBEB"/>
<path d="M21.5126 6.30212H20.8823V6.89937H21.5126V6.30212Z" fill="#EBEBEB"/>
<path d="M22.319 6.30212H21.6887V6.89937H22.319V6.30212Z" fill="#EBEBEB"/>
<path d="M21.5126 7.31616H20.8823V7.9134H21.5126V7.31616Z" fill="#EBEBEB"/>
<path d="M22.319 7.31616H21.6887V7.9134H22.319V7.31616Z" fill="#EBEBEB"/>
<path d="M21.5126 8.3302H20.8823V8.92744H21.5126V8.3302Z" fill="#EBEBEB"/>
<path d="M22.319 8.3302H21.6887V8.92744H22.319V8.3302Z" fill="#EBEBEB"/>
<path d="M21.5126 9.34387H20.8823V9.94111H21.5126V9.34387Z" fill="#EBEBEB"/>
<path d="M22.319 9.34387H21.6887V9.94111H22.319V9.34387Z" fill="#EBEBEB"/>
<path d="M21.5126 10.3579H20.8823V10.9552H21.5126V10.3579Z" fill="#EBEBEB"/>
<path d="M22.319 10.3579H21.6887V10.9552H22.319V10.3579Z" fill="#EBEBEB"/>
<path d="M21.5126 11.3719H20.8823V11.9692H21.5126V11.3719Z" fill="#EBEBEB"/>
<path d="M22.319 11.3719H21.6887V11.9692H22.319V11.3719Z" fill="#EBEBEB"/>
<path d="M21.5126 12.386H20.8823V12.9832H21.5126V12.386Z" fill="#EBEBEB"/>
<path d="M22.319 12.386H21.6887V12.9832H22.319V12.386Z" fill="#EBEBEB"/>
<path d="M21.5126 13.4H20.8823V13.9973H21.5126V13.4Z" fill="#EBEBEB"/>
<path d="M22.319 13.4H21.6887V13.9973H22.319V13.4Z" fill="#EBEBEB"/>
<path d="M21.5126 14.4141H20.8823V15.0113H21.5126V14.4141Z" fill="#EBEBEB"/>
<path d="M22.319 14.4141H21.6887V15.0113H22.319V14.4141Z" fill="#EBEBEB"/>
<path d="M21.5126 15.4279H20.8823V16.0251H21.5126V15.4279Z" fill="#EBEBEB"/>
<path d="M22.319 15.4279H21.6887V16.0251H22.319V15.4279Z" fill="#EBEBEB"/>
<path d="M21.5126 16.4421H20.8823V17.0394H21.5126V16.4421Z" fill="#EBEBEB"/>
<path d="M22.319 16.4421H21.6887V17.0394H22.319V16.4421Z" fill="#EBEBEB"/>
<path d="M21.5126 17.4559H20.8823V18.0532H21.5126V17.4559Z" fill="#EBEBEB"/>
<path d="M22.4881 18.0531H23.1184V17.4559H22.4881V18.0531Z" fill="#EBEBEB"/>
<path d="M22.4881 17.0393H23.1184V16.4421H22.4881V17.0393Z" fill="#EBEBEB"/>
<path d="M22.4881 16.0253H23.1184V15.428H22.4881V16.0253Z" fill="#EBEBEB"/>
<path d="M22.4881 15.0112H23.1184V14.414H22.4881V15.0112Z" fill="#EBEBEB"/>
<path d="M22.4881 13.9972H23.1184V13.3999H22.4881V13.9972Z" fill="#EBEBEB"/>
<path d="M22.4881 12.9832H23.1184V12.3859H22.4881V12.9832Z" fill="#EBEBEB"/>
<path d="M22.4881 11.9691H23.1184V11.3719H22.4881V11.9691Z" fill="#EBEBEB"/>
<path d="M22.4881 10.9554H23.1184V10.3582H22.4881V10.9554Z" fill="#EBEBEB"/>
<path d="M22.4881 9.94141H23.1184V9.34416H22.4881V9.94141Z" fill="#EBEBEB"/>
<path d="M22.4881 8.92737H23.1184V8.33013H22.4881V8.92737Z" fill="#EBEBEB"/>
<path d="M22.4881 7.91333H23.1184V7.31609H22.4881V7.91333Z" fill="#EBEBEB"/>
<path d="M22.4881 6.89929H23.1184V6.30205H22.4881V6.89929Z" fill="#EBEBEB"/>
<path d="M22.4881 5.88525H23.1184V5.28801H22.4881V5.88525Z" fill="#EBEBEB"/>
<path d="M22.4881 4.87122H23.1184V4.27397H22.4881V4.87122Z" fill="#EBEBEB"/>
<path d="M22.319 17.4559H21.6887V18.0532H22.319V17.4559Z" fill="#EBEBEB"/>
<path d="M26.1778 3.76611H23.6213V19.4078H26.1778V3.76611Z" fill="#A6A6A6"/>
<path d="M25.3938 18.0531H25.9143V17.4559H25.3938V18.0531Z" fill="#C7C7C7"/>
<path d="M24.728 18.0531H25.2485V17.4559H24.728V18.0531Z" fill="#C7C7C7"/>
<path d="M25.3938 17.0393H25.9143V16.4421H25.3938V17.0393Z" fill="#C7C7C7"/>
<path d="M24.728 17.0393H25.2485V16.4421H24.728V17.0393Z" fill="#C7C7C7"/>
<path d="M25.3938 16.0253H25.9143V15.428H25.3938V16.0253Z" fill="#C7C7C7"/>
<path d="M24.728 16.0253H25.2485V15.428H24.728V16.0253Z" fill="#C7C7C7"/>
<path d="M25.3938 15.0112H25.9143V14.414H25.3938V15.0112Z" fill="#C7C7C7"/>
<path d="M24.728 15.0112H25.2485V14.414H24.728V15.0112Z" fill="#C7C7C7"/>
<path d="M25.3938 13.9972H25.9143V13.3999H25.3938V13.9972Z" fill="#C7C7C7"/>
<path d="M24.728 13.9972H25.2485V13.3999H24.728V13.9972Z" fill="#C7C7C7"/>
<path d="M25.3938 12.9832H25.9143V12.3859H25.3938V12.9832Z" fill="#C7C7C7"/>
<path d="M24.728 12.9832H25.2485V12.3859H24.728V12.9832Z" fill="#C7C7C7"/>
<path d="M25.3938 11.9691H25.9143V11.3719H25.3938V11.9691Z" fill="#C7C7C7"/>
<path d="M24.728 11.9691H25.2485V11.3719H24.728V11.9691Z" fill="#C7C7C7"/>
<path d="M25.3938 10.9554H25.9143V10.3582H25.3938V10.9554Z" fill="#C7C7C7"/>
<path d="M24.728 10.9554H25.2485V10.3582H24.728V10.9554Z" fill="#C7C7C7"/>
<path d="M25.3938 9.94141H25.9143V9.34416H25.3938V9.94141Z" fill="#C7C7C7"/>
<path d="M24.728 9.94141H25.2485V9.34416H24.728V9.94141Z" fill="#C7C7C7"/>
<path d="M25.3938 8.92737H25.9143V8.33013H25.3938V8.92737Z" fill="#C7C7C7"/>
<path d="M24.728 8.92737H25.2485V8.33013H24.728V8.92737Z" fill="#C7C7C7"/>
<path d="M25.3938 7.91333H25.9143V7.31609H25.3938V7.91333Z" fill="#C7C7C7"/>
<path d="M24.728 7.91333H25.2485V7.31609H24.728V7.91333Z" fill="#C7C7C7"/>
<path d="M25.3938 6.89929H25.9143V6.30205H25.3938V6.89929Z" fill="#C7C7C7"/>
<path d="M24.728 6.89929H25.2485V6.30205H24.728V6.89929Z" fill="#C7C7C7"/>
<path d="M25.3938 5.88525H25.9143V5.28801H25.3938V5.88525Z" fill="#C7C7C7"/>
<path d="M24.728 5.88525H25.2485V5.28801H24.728V5.88525Z" fill="#C7C7C7"/>
<path d="M25.3938 4.87122H25.9143V4.27397H25.3938V4.87122Z" fill="#C7C7C7"/>
<path d="M24.5884 4.27417H24.0679V4.87141H24.5884V4.27417Z" fill="#C7C7C7"/>
<path d="M24.5886 5.28809H24.0681V5.88533H24.5886V5.28809Z" fill="#C7C7C7"/>
<path d="M24.5886 6.30212H24.0681V6.89937H24.5886V6.30212Z" fill="#C7C7C7"/>
<path d="M24.5886 7.31616H24.0681V7.9134H24.5886V7.31616Z" fill="#C7C7C7"/>
<path d="M24.5886 8.3302H24.0681V8.92744H24.5886V8.3302Z" fill="#C7C7C7"/>
<path d="M24.5886 9.34387H24.0681V9.94111H24.5886V9.34387Z" fill="#C7C7C7"/>
<path d="M24.5886 10.3579H24.0681V10.9552H24.5886V10.3579Z" fill="#C7C7C7"/>
<path d="M24.5886 11.3719H24.0681V11.9692H24.5886V11.3719Z" fill="#C7C7C7"/>
<path d="M24.5886 12.386H24.0681V12.9832H24.5886V12.386Z" fill="#C7C7C7"/>
<path d="M24.5886 13.4H24.0681V13.9973H24.5886V13.4Z" fill="#C7C7C7"/>
<path d="M24.5886 14.4141H24.0681V15.0113H24.5886V14.4141Z" fill="#C7C7C7"/>
<path d="M24.5886 15.4279H24.0681V16.0251H24.5886V15.4279Z" fill="#C7C7C7"/>
<path d="M24.5886 16.4421H24.0681V17.0394H24.5886V16.4421Z" fill="#C7C7C7"/>
<path d="M24.5886 17.4559H24.0681V18.0532H24.5886V17.4559Z" fill="#C7C7C7"/>
<path d="M24.728 4.87122H25.2485V4.27397H24.728V4.87122Z" fill="#C7C7C7"/>
<path d="M7.15825 3.4248H3.77563V19.4078H7.15825V3.4248Z" fill="#EBEBEB"/>
<path d="M7.15829 3.10645H3.69434V3.42473H7.15829V3.10645Z" fill="#C7C7C7"/>
<path d="M4.42426 3.89368H4.08154V19.4076H4.42426V3.89368Z" fill="white"/>
<path d="M5.0312 3.89368H4.68848V19.4076H5.0312V3.89368Z" fill="white"/>
<path d="M5.63813 3.89368H5.29541V19.4076H5.63813V3.89368Z" fill="white"/>
<path d="M6.24531 3.89368H5.90259V19.4076H6.24531V3.89368Z" fill="white"/>
<path d="M6.85224 3.89368H6.50952V19.4076H6.85224V3.89368Z" fill="white"/>
<path d="M4.42402 4.2959H4.0813V4.92413H4.42402V4.2959Z" fill="#EBEBEB"/>
<path d="M5.0312 4.2959H4.68848V4.92413H5.0312V4.2959Z" fill="#EBEBEB"/>
<path d="M5.63813 4.2959H5.29541V4.92413H5.63813V4.2959Z" fill="#EBEBEB"/>
<path d="M6.24506 4.2959H5.90234V4.92413H6.24506V4.2959Z" fill="#EBEBEB"/>
<path d="M6.85224 4.2959H6.50952V4.92413H6.85224V4.2959Z" fill="#EBEBEB"/>
<path d="M4.42426 5.31677H4.08154V5.94507H4.42426V5.31677Z" fill="#EBEBEB"/>
<path d="M5.0312 5.31677H4.68848V5.94507H5.0312V5.31677Z" fill="#EBEBEB"/>
<path d="M5.63838 5.31677H5.29565V5.94507H5.63838V5.31677Z" fill="#EBEBEB"/>
<path d="M6.24531 5.31677H5.90259V5.94507H6.24531V5.31677Z" fill="#EBEBEB"/>
<path d="M6.85224 5.31677H6.50952V5.94507H6.85224V5.31677Z" fill="#EBEBEB"/>
<path d="M4.42402 6.33801H4.0813V6.96631H4.42402V6.33801Z" fill="#EBEBEB"/>
<path d="M5.0312 6.33801H4.68848V6.96631H5.0312V6.33801Z" fill="#EBEBEB"/>
<path d="M5.63813 6.33801H5.29541V6.96631H5.63813V6.33801Z" fill="#EBEBEB"/>
<path d="M6.24506 6.33801H5.90234V6.96631H6.24506V6.33801Z" fill="#EBEBEB"/>
<path d="M6.85224 6.33801H6.50952V6.96631H6.85224V6.33801Z" fill="#EBEBEB"/>
<path d="M4.42402 7.35901H4.0813V7.98731H4.42402V7.35901Z" fill="#EBEBEB"/>
<path d="M5.0312 7.35901H4.68848V7.98731H5.0312V7.35901Z" fill="#EBEBEB"/>
<path d="M5.63813 7.35901H5.29541V7.98731H5.63813V7.35901Z" fill="#EBEBEB"/>
<path d="M6.24506 7.35901H5.90234V7.98731H6.24506V7.35901Z" fill="#EBEBEB"/>
<path d="M6.85224 7.35901H6.50952V7.98731H6.85224V7.35901Z" fill="#EBEBEB"/>
<path d="M4.42402 8.38037H4.0813V9.00867H4.42402V8.38037Z" fill="#EBEBEB"/>
<path d="M5.0312 8.38037H4.68848V9.00867H5.0312V8.38037Z" fill="#EBEBEB"/>
<path d="M5.63813 8.38037H5.29541V9.00867H5.63813V8.38037Z" fill="#EBEBEB"/>
<path d="M6.24506 8.38037H5.90234V9.00867H6.24506V8.38037Z" fill="#EBEBEB"/>
<path d="M6.85224 8.38037H6.50952V9.00867H6.85224V8.38037Z" fill="#EBEBEB"/>
<path d="M4.42402 9.40149H4.0813V10.0298H4.42402V9.40149Z" fill="#EBEBEB"/>
<path d="M5.0312 9.40149H4.68848V10.0298H5.0312V9.40149Z" fill="#EBEBEB"/>
<path d="M5.63813 9.40149H5.29541V10.0298H5.63813V9.40149Z" fill="#EBEBEB"/>
<path d="M6.24506 9.40149H5.90234V10.0298H6.24506V9.40149Z" fill="#EBEBEB"/>
<path d="M6.85224 9.40149H6.50952V10.0298H6.85224V9.40149Z" fill="#EBEBEB"/>
<path d="M4.42402 10.4224H4.0813V11.0506H4.42402V10.4224Z" fill="#EBEBEB"/>
<path d="M5.0312 10.4224H4.68848V11.0506H5.0312V10.4224Z" fill="#EBEBEB"/>
<path d="M5.63813 10.4224H5.29541V11.0506H5.63813V10.4224Z" fill="#EBEBEB"/>
<path d="M6.24506 10.4224H5.90234V11.0506H6.24506V10.4224Z" fill="#EBEBEB"/>
<path d="M6.85224 10.4224H6.50952V11.0506H6.85224V10.4224Z" fill="#EBEBEB"/>
<path d="M4.42426 11.4432H4.08154V12.0715H4.42426V11.4432Z" fill="#EBEBEB"/>
<path d="M5.0312 11.4432H4.68848V12.0715H5.0312V11.4432Z" fill="#EBEBEB"/>
<path d="M5.63838 11.4432H5.29565V12.0715H5.63838V11.4432Z" fill="#EBEBEB"/>
<path d="M6.24531 11.4432H5.90259V12.0715H6.24531V11.4432Z" fill="#EBEBEB"/>
<path d="M6.85224 11.4432H6.50952V12.0715H6.85224V11.4432Z" fill="#EBEBEB"/>
<path d="M4.42402 12.4644H4.0813V13.0927H4.42402V12.4644Z" fill="#EBEBEB"/>
<path d="M5.0312 12.4644H4.68848V13.0927H5.0312V12.4644Z" fill="#EBEBEB"/>
<path d="M5.63813 12.4644H5.29541V13.0927H5.63813V12.4644Z" fill="#EBEBEB"/>
<path d="M6.24506 12.4644H5.90234V13.0927H6.24506V12.4644Z" fill="#EBEBEB"/>
<path d="M6.85224 12.4644H6.50952V13.0927H6.85224V12.4644Z" fill="#EBEBEB"/>
<path d="M4.42402 13.4855H4.0813V14.1138H4.42402V13.4855Z" fill="#EBEBEB"/>
<path d="M5.0312 13.4855H4.68848V14.1138H5.0312V13.4855Z" fill="#EBEBEB"/>
<path d="M5.63813 13.4855H5.29541V14.1138H5.63813V13.4855Z" fill="#EBEBEB"/>
<path d="M6.24506 13.4855H5.90234V14.1138H6.24506V13.4855Z" fill="#EBEBEB"/>
<path d="M6.85224 13.4855H6.50952V14.1138H6.85224V13.4855Z" fill="#EBEBEB"/>
<path d="M4.42402 14.5068H4.0813V15.1351H4.42402V14.5068Z" fill="#EBEBEB"/>
<path d="M5.0312 14.5068H4.68848V15.1351H5.0312V14.5068Z" fill="#EBEBEB"/>
<path d="M5.63813 14.5068H5.29541V15.1351H5.63813V14.5068Z" fill="#EBEBEB"/>
<path d="M6.24506 14.5068H5.90234V15.1351H6.24506V14.5068Z" fill="#EBEBEB"/>
<path d="M6.85224 14.5068H6.50952V15.1351H6.85224V14.5068Z" fill="#EBEBEB"/>
<path d="M4.42402 15.528H4.0813V16.1563H4.42402V15.528Z" fill="#EBEBEB"/>
<path d="M5.0312 15.528H4.68848V16.1563H5.0312V15.528Z" fill="#EBEBEB"/>
<path d="M5.63813 15.528H5.29541V16.1563H5.63813V15.528Z" fill="#EBEBEB"/>
<path d="M6.24506 15.528H5.90234V16.1563H6.24506V15.528Z" fill="#EBEBEB"/>
<path d="M6.85224 15.528H6.50952V16.1563H6.85224V15.528Z" fill="#EBEBEB"/>
<path d="M4.42402 16.5488H4.0813V17.1771H4.42402V16.5488Z" fill="#EBEBEB"/>
<path d="M5.0312 16.5488H4.68848V17.1771H5.0312V16.5488Z" fill="#EBEBEB"/>
<path d="M5.63813 16.5488H5.29541V17.1771H5.63813V16.5488Z" fill="#EBEBEB"/>
<path d="M6.24506 16.5488H5.90234V17.1771H6.24506V16.5488Z" fill="#EBEBEB"/>
<path d="M6.85224 16.5488H6.50952V17.1771H6.85224V16.5488Z" fill="#EBEBEB"/>
<path d="M4.42402 17.5697H4.0813V19.4073H4.42402V17.5697Z" fill="#EBEBEB"/>
<path d="M5.0312 17.5697H4.68848V19.4073H5.0312V17.5697Z" fill="#EBEBEB"/>
<path d="M5.63813 17.5697H5.29541V19.4073H5.63813V17.5697Z" fill="#EBEBEB"/>
<path d="M6.24506 17.5697H5.90234V19.4073H6.24506V17.5697Z" fill="#EBEBEB"/>
<path d="M6.85224 17.5697H6.50952V19.4073H6.85224V17.5697Z" fill="#EBEBEB"/>
<path d="M9.32984 3.4248H7.1582V19.4078H9.32984V3.4248Z" fill="#DBDBDB"/>
<path d="M9.42383 3.10645H7.1582V3.42473H9.42383V3.10645Z" fill="#C7C7C7"/>
<path d="M7.80683 3.89368H7.46411V19.4076H7.80683V3.89368Z" fill="#C7C7C7"/>
<path d="M8.41352 3.89368H8.0708V19.4076H8.41352V3.89368Z" fill="#C7C7C7"/>
<path d="M9.0207 3.89368H8.67798V19.4076H9.0207V3.89368Z" fill="#C7C7C7"/>
<path d="M7.80659 4.2959H7.46387V4.92413H7.80659V4.2959Z" fill="#DBDBDB"/>
<path d="M8.41352 4.2959H8.0708V4.92413H8.41352V4.2959Z" fill="#DBDBDB"/>
<path d="M9.0207 4.2959H8.67798V4.92413H9.0207V4.2959Z" fill="#DBDBDB"/>
<path d="M7.80659 5.31677H7.46387V5.94507H7.80659V5.31677Z" fill="#DBDBDB"/>
<path d="M8.41352 5.31677H8.0708V5.94507H8.41352V5.31677Z" fill="#DBDBDB"/>
<path d="M9.02046 5.31677H8.67773V5.94507H9.02046V5.31677Z" fill="#DBDBDB"/>
<path d="M7.80659 6.33801H7.46387V6.96631H7.80659V6.33801Z" fill="#DBDBDB"/>
<path d="M8.41352 6.33801H8.0708V6.96631H8.41352V6.33801Z" fill="#DBDBDB"/>
<path d="M9.0207 6.33801H8.67798V6.96631H9.0207V6.33801Z" fill="#DBDBDB"/>
<path d="M7.80659 7.35901H7.46387V7.98731H7.80659V7.35901Z" fill="#DBDBDB"/>
<path d="M8.41352 7.35901H8.0708V7.98731H8.41352V7.35901Z" fill="#DBDBDB"/>
<path d="M9.0207 7.35901H8.67798V7.98731H9.0207V7.35901Z" fill="#DBDBDB"/>
<path d="M7.80659 8.38037H7.46387V9.00867H7.80659V8.38037Z" fill="#DBDBDB"/>
<path d="M8.41352 8.38037H8.0708V9.00867H8.41352V8.38037Z" fill="#DBDBDB"/>
<path d="M9.0207 8.38037H8.67798V9.00867H9.0207V8.38037Z" fill="#DBDBDB"/>
<path d="M7.80659 9.40149H7.46387V10.0298H7.80659V9.40149Z" fill="#DBDBDB"/>
<path d="M8.41352 9.40149H8.0708V10.0298H8.41352V9.40149Z" fill="#DBDBDB"/>
<path d="M9.0207 9.40149H8.67798V10.0298H9.0207V9.40149Z" fill="#DBDBDB"/>
<path d="M7.80659 10.4224H7.46387V11.0506H7.80659V10.4224Z" fill="#DBDBDB"/>
<path d="M8.41352 10.4224H8.0708V11.0506H8.41352V10.4224Z" fill="#DBDBDB"/>
<path d="M9.0207 10.4224H8.67798V11.0506H9.0207V10.4224Z" fill="#DBDBDB"/>
<path d="M7.80659 11.4432H7.46387V12.0715H7.80659V11.4432Z" fill="#DBDBDB"/>
<path d="M8.41352 11.4432H8.0708V12.0715H8.41352V11.4432Z" fill="#DBDBDB"/>
<path d="M9.0207 11.4432H8.67798V12.0715H9.0207V11.4432Z" fill="#DBDBDB"/>
<path d="M7.80659 12.4644H7.46387V13.0927H7.80659V12.4644Z" fill="#DBDBDB"/>
<path d="M8.41352 12.4644H8.0708V13.0927H8.41352V12.4644Z" fill="#DBDBDB"/>
<path d="M9.0207 12.4644H8.67798V13.0927H9.0207V12.4644Z" fill="#DBDBDB"/>
<path d="M7.80659 13.4855H7.46387V14.1138H7.80659V13.4855Z" fill="#DBDBDB"/>
<path d="M8.41352 13.4855H8.0708V14.1138H8.41352V13.4855Z" fill="#DBDBDB"/>
<path d="M9.0207 13.4855H8.67798V14.1138H9.0207V13.4855Z" fill="#DBDBDB"/>
<path d="M7.80659 14.5068H7.46387V15.1351H7.80659V14.5068Z" fill="#DBDBDB"/>
<path d="M8.41352 14.5068H8.0708V15.1351H8.41352V14.5068Z" fill="#DBDBDB"/>
<path d="M9.0207 14.5068H8.67798V15.1351H9.0207V14.5068Z" fill="#DBDBDB"/>
<path d="M7.80659 15.528H7.46387V16.1563H7.80659V15.528Z" fill="#DBDBDB"/>
<path d="M8.41352 15.528H8.0708V16.1563H8.41352V15.528Z" fill="#DBDBDB"/>
<path d="M9.0207 15.528H8.67798V16.1563H9.0207V15.528Z" fill="#DBDBDB"/>
<path d="M7.80659 16.5488H7.46387V17.1771H7.80659V16.5488Z" fill="#DBDBDB"/>
<path d="M8.41352 16.5488H8.0708V17.1771H8.41352V16.5488Z" fill="#DBDBDB"/>
<path d="M9.0207 16.5488H8.67798V17.1771H9.0207V16.5488Z" fill="#DBDBDB"/>
<path d="M7.80659 17.5697H7.46387V19.4073H7.80659V17.5697Z" fill="#DBDBDB"/>
<path d="M8.41352 17.5697H8.0708V19.4073H8.41352V17.5697Z" fill="#DBDBDB"/>
<path d="M9.0207 17.5697H8.67798V19.4073H9.0207V17.5697Z" fill="#DBDBDB"/>
<path d="M3.20796 8.2124H0V19.4084H3.20796V8.2124Z" fill="#EBEBEB"/>
<path d="M3.20802 7.46973H0.456299V8.21227H3.20802V7.46973Z" fill="#C7C7C7"/>
<path d="M2.85636 8.59998H0.351807V16.9698H2.85636V8.59998Z" fill="#DBDBDB"/>
<path d="M2.85612 9.39868H0.351562V9.59645H2.85612V9.39868Z" fill="white"/>
<path d="M2.85612 10.2178H0.351562V10.4155H2.85612V10.2178Z" fill="white"/>
<path d="M2.85612 11.0371H0.351562V11.2349H2.85612V11.0371Z" fill="white"/>
<path d="M2.85612 11.8566H0.351562V12.0543H2.85612V11.8566Z" fill="white"/>
<path d="M2.85612 12.6755H0.351562V12.8733H2.85612V12.6755Z" fill="white"/>
<path d="M2.85612 13.495H0.351562V13.6928H2.85612V13.495Z" fill="white"/>
<path d="M2.85612 14.3143H0.351562V14.5121H2.85612V14.3143Z" fill="white"/>
<path d="M2.85612 15.1334H0.351562V15.3312H2.85612V15.1334Z" fill="white"/>
<path d="M2.85612 15.9528H0.351562V16.1505H2.85612V15.9528Z" fill="white"/>
<path d="M2.85612 16.7719H0.351562V16.9696H2.85612V16.7719Z" fill="white"/>
<path d="M5.21734 8.2124H3.20801V19.4084H5.21734V8.2124Z" fill="#DBDBDB"/>
<path d="M4.91585 7.46973H3.20801V8.21227H4.91585V7.46973Z" fill="#A6A6A6"/>
<path d="M5.03005 8.59998H3.48511V16.9698H5.03005V8.59998Z" fill="#C7C7C7"/>
<path d="M5.0298 9.39868H3.48486V9.59645H5.0298V9.39868Z" fill="white"/>
<path d="M5.0298 10.2178H3.48486V10.4155H5.0298V10.2178Z" fill="white"/>
<path d="M5.0298 11.0371H3.48486V11.2349H5.0298V11.0371Z" fill="white"/>
<path d="M5.0298 11.8566H3.48486V12.0543H5.0298V11.8566Z" fill="white"/>
<path d="M5.0298 12.6755H3.48486V12.8733H5.0298V12.6755Z" fill="white"/>
<path d="M5.0298 13.495H3.48486V13.6928H5.0298V13.495Z" fill="white"/>
<path d="M5.0298 14.3143H3.48486V14.5121H5.0298V14.3143Z" fill="white"/>
<path d="M5.0298 15.1334H3.48486V15.3312H5.0298V15.1334Z" fill="white"/>
<path d="M5.0298 15.9528H3.48486V16.1505H5.0298V15.9528Z" fill="white"/>
<path d="M5.0298 16.7719H3.48486V16.9696H5.0298V16.7719Z" fill="white"/>
<path d="M28.0778 8.40088H26.3645V10.2634H28.0778V8.40088Z" fill="#DBDBDB"/>
<path d="M29.1642 8.40088H28.0779V10.3317H29.1642V8.40088Z" fill="#C7C7C7"/>
<path d="M29.2366 9.22327H28.1584V10.3317H29.2366V9.22327Z" fill="#DBDBDB"/>
<path d="M29.909 9.22327H29.2366V10.3317H29.909V9.22327Z" fill="#C7C7C7"/>
<path d="M28.4778 10.1425H25.7073V19.4083H28.4778V10.1425Z" fill="#EBEBEB"/>
<path d="M26.8953 10.5408H26.0242V10.8683H26.8953V10.5408Z" fill="white"/>
<path d="M28.0098 10.5408H27.1387V10.8683H28.0098V10.5408Z" fill="white"/>
<path d="M26.8956 11.0969H26.0244V11.4245H26.8956V11.0969Z" fill="white"/>
<path d="M28.0098 11.0969H27.1387V11.4245H28.0098V11.0969Z" fill="white"/>
<path d="M26.8956 11.6531H26.0244V11.9807H26.8956V11.6531Z" fill="white"/>
<path d="M28.0098 11.6531H27.1387V11.9807H28.0098V11.6531Z" fill="white"/>
<path d="M26.8956 12.2092H26.0244V12.5368H26.8956V12.2092Z" fill="white"/>
<path d="M28.0098 12.2092H27.1387V12.5368H28.0098V12.2092Z" fill="white"/>
<path d="M26.8956 12.7653H26.0244V13.0928H26.8956V12.7653Z" fill="white"/>
<path d="M28.0098 12.7653H27.1387V13.0928H28.0098V12.7653Z" fill="white"/>
<path d="M26.8956 13.3218H26.0244V13.6494H26.8956V13.3218Z" fill="white"/>
<path d="M28.0098 13.3218H27.1387V13.6494H28.0098V13.3218Z" fill="white"/>
<path d="M26.8956 13.8779H26.0244V14.2055H26.8956V13.8779Z" fill="white"/>
<path d="M28.0098 13.8779H27.1387V14.2055H28.0098V13.8779Z" fill="white"/>
<path d="M26.8956 14.434H26.0244V14.7615H26.8956V14.434Z" fill="white"/>
<path d="M28.0098 14.434H27.1387V14.7615H28.0098V14.434Z" fill="white"/>
<path d="M26.8956 14.9901H26.0244V15.3177H26.8956V14.9901Z" fill="white"/>
<path d="M28.0098 14.9901H27.1387V15.3177H28.0098V14.9901Z" fill="white"/>
<path d="M26.8956 15.5463H26.0244V15.8738H26.8956V15.5463Z" fill="white"/>
<path d="M28.0098 15.5463H27.1387V15.8738H28.0098V15.5463Z" fill="white"/>
<path d="M26.8956 16.1024H26.0244V16.43H26.8956V16.1024Z" fill="white"/>
<path d="M28.0098 16.1024H27.1387V16.43H28.0098V16.1024Z" fill="white"/>
<path d="M26.8956 16.6586H26.0244V16.9861H26.8956V16.6586Z" fill="white"/>
<path d="M28.0098 16.6586H27.1387V16.9861H28.0098V16.6586Z" fill="white"/>
<path d="M26.8956 17.2147H26.0244V17.5423H26.8956V17.2147Z" fill="white"/>
<path d="M28.0098 17.2147H27.1387V17.5423H28.0098V17.2147Z" fill="white"/>
<path d="M26.8956 17.7708H26.0244V18.0983H26.8956V17.7708Z" fill="white"/>
<path d="M28.0098 17.7708H27.1387V18.0983H28.0098V17.7708Z" fill="white"/>
<path d="M30.7228 10.1425H28.4778V19.4083H30.7228V10.1425Z" fill="#C7C7C7"/>
<path d="M29.7823 18.0986H30.4976V17.7711H29.7823V18.0986Z" fill="#EBEBEB"/>
<path d="M28.8672 18.0986H29.5825V17.7711H28.8672V18.0986Z" fill="#EBEBEB"/>
<path d="M29.7823 17.5425H30.4976V17.2149H29.7823V17.5425Z" fill="#EBEBEB"/>
<path d="M28.8672 17.5425H29.5825V17.2149H28.8672V17.5425Z" fill="#EBEBEB"/>
<path d="M29.7823 16.9863H30.4976V16.6587H29.7823V16.9863Z" fill="#EBEBEB"/>
<path d="M28.8672 16.9863H29.5825V16.6587H28.8672V16.9863Z" fill="#EBEBEB"/>
<path d="M29.7823 16.4303H30.4976V16.1027H29.7823V16.4303Z" fill="#EBEBEB"/>
<path d="M28.8672 16.4303H29.5825V16.1027H28.8672V16.4303Z" fill="#EBEBEB"/>
<path d="M29.7823 15.8741H30.4976V15.5466H29.7823V15.8741Z" fill="#EBEBEB"/>
<path d="M28.8672 15.8741H29.5825V15.5466H28.8672V15.8741Z" fill="#EBEBEB"/>
<path d="M29.7823 15.318H30.4976V14.9904H29.7823V15.318Z" fill="#EBEBEB"/>
<path d="M28.8672 15.318H29.5825V14.9904H28.8672V15.318Z" fill="#EBEBEB"/>
<path d="M29.7823 14.7616H30.4976V14.434H29.7823V14.7616Z" fill="#EBEBEB"/>
<path d="M28.8672 14.7616H29.5825V14.434H28.8672V14.7616Z" fill="#EBEBEB"/>
<path d="M29.7823 14.2054H30.4976V13.8779H29.7823V14.2054Z" fill="#EBEBEB"/>
<path d="M28.8672 14.2054H29.5825V13.8779H28.8672V14.2054Z" fill="#EBEBEB"/>
<path d="M29.7823 13.6493H30.4976V13.3217H29.7823V13.6493Z" fill="#EBEBEB"/>
<path d="M28.8672 13.6493H29.5825V13.3217H28.8672V13.6493Z" fill="#EBEBEB"/>
<path d="M29.7823 13.0931H30.4976V12.7656H29.7823V13.0931Z" fill="#EBEBEB"/>
<path d="M28.8672 13.0931H29.5825V12.7656H28.8672V13.0931Z" fill="#EBEBEB"/>
<path d="M29.7823 12.537H30.4976V12.2094H29.7823V12.537Z" fill="#EBEBEB"/>
<path d="M28.8672 12.537H29.5825V12.2094H28.8672V12.537Z" fill="#EBEBEB"/>
<path d="M29.7823 11.9808H30.4976V11.6533H29.7823V11.9808Z" fill="#EBEBEB"/>
<path d="M28.8672 11.9808H29.5825V11.6533H28.8672V11.9808Z" fill="#EBEBEB"/>
<path d="M29.7823 11.4244H30.4976V11.0969H29.7823V11.4244Z" fill="#EBEBEB"/>
<path d="M28.8672 11.4244H29.5825V11.0969H28.8672V11.4244Z" fill="#EBEBEB"/>
<path d="M29.7823 10.8687H30.4976V10.5411H29.7823V10.8687Z" fill="#EBEBEB"/>
<path d="M28.8672 10.8687H29.5825V10.5411H28.8672V10.8687Z" fill="#EBEBEB"/>
<path d="M18.4706 13.3704H15.2029V19.4081H18.4706V13.3704Z" fill="#C7C7C7"/>
<path d="M16.2951 13.8931H15.7168V14.263H16.2951V13.8931Z" fill="#DBDBDB"/>
<path d="M16.2951 14.6831H15.7168V15.053H16.2951V14.6831Z" fill="#DBDBDB"/>
<path d="M16.2951 15.4731H15.7168V15.8431H16.2951V15.4731Z" fill="#DBDBDB"/>
<path d="M16.2951 16.2634H15.7168V16.6334H16.2951V16.2634Z" fill="#DBDBDB"/>
<path d="M16.2951 17.0535H15.7168V17.4234H16.2951V17.0535Z" fill="#DBDBDB"/>
<path d="M16.2951 17.8435H15.7168V18.2134H16.2951V17.8435Z" fill="#DBDBDB"/>
<path d="M16.2951 18.6335H15.7168V19.0035H16.2951V18.6335Z" fill="#DBDBDB"/>
<path d="M17.1269 13.8931H16.5486V14.263H17.1269V13.8931Z" fill="#DBDBDB"/>
<path d="M17.1269 14.6831H16.5486V15.053H17.1269V14.6831Z" fill="#DBDBDB"/>
<path d="M17.1269 15.4731H16.5486V15.8431H17.1269V15.4731Z" fill="#DBDBDB"/>
<path d="M17.1269 16.2634H16.5486V16.6334H17.1269V16.2634Z" fill="#DBDBDB"/>
<path d="M17.1269 17.0535H16.5486V17.4234H17.1269V17.0535Z" fill="#DBDBDB"/>
<path d="M17.1269 17.8435H16.5486V18.2134H17.1269V17.8435Z" fill="#DBDBDB"/>
<path d="M17.1269 18.6335H16.5486V19.0035H17.1269V18.6335Z" fill="#DBDBDB"/>
<path d="M17.9569 13.8931H17.3787V14.263H17.9569V13.8931Z" fill="#DBDBDB"/>
<path d="M17.9569 14.6831H17.3787V15.053H17.9569V14.6831Z" fill="#DBDBDB"/>
<path d="M17.9569 15.4731H17.3787V15.8431H17.9569V15.4731Z" fill="#DBDBDB"/>
<path d="M17.9569 16.2634H17.3787V16.6334H17.9569V16.2634Z" fill="#DBDBDB"/>
<path d="M17.9569 17.0535H17.3787V17.4234H17.9569V17.0535Z" fill="#DBDBDB"/>
<path d="M17.9569 17.8435H17.3787V18.2134H17.9569V17.8435Z" fill="#DBDBDB"/>
<path d="M17.9569 18.6335H17.3787V19.0035H17.9569V18.6335Z" fill="#DBDBDB"/>
<path d="M18.4708 12.7415H16.2952V13.3705H18.4708V12.7415Z" fill="#DBDBDB"/>
<path d="M18.4706 12.3518H17.0913V12.7413H18.4706V12.3518Z" fill="#EBEBEB"/>
<path d="M20.7634 13.3704H18.4707V19.4081H20.7634V13.3704Z" fill="#A6A6A6"/>
<path d="M20.0581 18.9446H20.5288V18.5747H20.0581V18.9446Z" fill="#C7C7C7"/>
<path d="M20.0581 18.1545H20.5288V17.7846H20.0581V18.1545Z" fill="#C7C7C7"/>
<path d="M20.0581 17.3641H20.5288V16.9942H20.0581V17.3641Z" fill="#C7C7C7"/>
<path d="M20.0581 16.5742H20.5288V16.2043H20.0581V16.5742Z" fill="#C7C7C7"/>
<path d="M20.0581 15.7842H20.5288V15.4143H20.0581V15.7842Z" fill="#C7C7C7"/>
<path d="M20.0581 14.9941H20.5288V14.6242H20.0581V14.9941Z" fill="#C7C7C7"/>
<path d="M20.0581 14.2037H20.5288V13.8338H20.0581V14.2037Z" fill="#C7C7C7"/>
<path d="M19.3811 18.9446H19.8518V18.5747H19.3811V18.9446Z" fill="#C7C7C7"/>
<path d="M19.3811 18.1545H19.8518V17.7846H19.3811V18.1545Z" fill="#C7C7C7"/>
<path d="M19.3811 17.3641H19.8518V16.9942H19.3811V17.3641Z" fill="#C7C7C7"/>
<path d="M19.3811 16.5742H19.8518V16.2043H19.3811V16.5742Z" fill="#C7C7C7"/>
<path d="M19.3811 15.7842H19.8518V15.4143H19.3811V15.7842Z" fill="#C7C7C7"/>
<path d="M19.3811 14.9941H19.8518V14.6242H19.3811V14.9941Z" fill="#C7C7C7"/>
<path d="M19.3811 14.2037H19.8518V13.8338H19.3811V14.2037Z" fill="#C7C7C7"/>
<path d="M18.7055 18.9446H19.1763V18.5747H18.7055V18.9446Z" fill="#C7C7C7"/>
<path d="M18.7055 18.1545H19.1763V17.7846H18.7055V18.1545Z" fill="#C7C7C7"/>
<path d="M18.7055 17.3641H19.1763V16.9942H18.7055V17.3641Z" fill="#C7C7C7"/>
<path d="M18.7055 16.5742H19.1763V16.2043H18.7055V16.5742Z" fill="#C7C7C7"/>
<path d="M18.7055 15.7842H19.1763V15.4143H18.7055V15.7842Z" fill="#C7C7C7"/>
<path d="M18.7055 14.9941H19.1763V14.6242H18.7055V14.9941Z" fill="#C7C7C7"/>
<path d="M18.7055 14.2037H19.1763V13.8338H18.7055V14.2037Z" fill="#C7C7C7"/>
<path d="M20.4161 12.7415H18.4707V13.3705H20.4161V12.7415Z" fill="#C7C7C7"/>
<path d="M19.5249 12.3518H18.4707V12.7413H19.5249V12.3518Z" fill="#DBDBDB"/>
<path d="M27.0876 4.95325H22.1492V18.9072H27.0876V4.95325Z" fill="url(#paint0_linear_12949_69095)"/>
<path d="M27.0691 3.54895H23.3738V4.95264H27.0691V3.54895Z" fill="url(#paint1_linear_12949_69095)"/>
<path d="M23.9973 3.76538H23.6814V4.73599H23.9973V3.76538Z" fill="url(#paint2_linear_12949_69095)"/>
<path d="M24.55 3.76538H24.2341V4.73599H24.55V3.76538Z" fill="url(#paint3_linear_12949_69095)"/>
<path d="M25.103 3.76538H24.7871V4.73599H25.103V3.76538Z" fill="url(#paint4_linear_12949_69095)"/>
<path d="M25.6557 3.76538H25.3398V4.73599H25.6557V3.76538Z" fill="url(#paint5_linear_12949_69095)"/>
<path d="M26.2084 3.76538H25.8926V4.73599H26.2084V3.76538Z" fill="url(#paint6_linear_12949_69095)"/>
<path d="M26.7614 3.76538H26.4456V4.73599H26.7614V3.76538Z" fill="url(#paint7_linear_12949_69095)"/>
<path d="M28.7495 3.54895H27.0691V4.95264H28.7495V3.54895Z" fill="url(#paint8_linear_12949_69095)"/>
<path d="M27.5734 3.76538H27.3047V4.73599H27.5734V3.76538Z" fill="url(#paint9_linear_12949_69095)"/>
<path d="M28.0436 3.76538H27.7749V4.73599H28.0436V3.76538Z" fill="url(#paint10_linear_12949_69095)"/>
<path d="M28.5138 3.76538H28.2451V4.73599H28.5138V3.76538Z" fill="url(#paint11_linear_12949_69095)"/>
<path d="M29.5826 4.95312H27.0691V18.9071H29.5826V4.95312Z" fill="url(#paint12_linear_12949_69095)"/>
<path d="M24.188 2.83826H24.075V3.54947H24.188V2.83826Z" fill="#263238"/>
<path d="M26.3682 2.83826H26.2551V3.54947H26.3682V2.83826Z" fill="#263238"/>
<path d="M26.8692 1.59448H23.574V2.83813H26.8692V1.59448Z" fill="url(#paint13_linear_12949_69095)"/>
<path d="M24.0717 5.91479H23.1602V7.19928H24.0717V5.91479Z" fill="#263238"/>
<path d="M25.9271 5.91479H25.0156V7.19928H25.9271V5.91479Z" fill="#263238"/>
<path d="M24.0717 7.93896H23.1602V9.22345H24.0717V7.93896Z" fill="#263238"/>
<path d="M25.9271 7.93896H25.0156V9.22345H25.9271V7.93896Z" fill="#263238"/>
<path d="M24.0717 9.96313H23.1602V11.2476H24.0717V9.96313Z" fill="#263238"/>
<path d="M25.9271 9.96313H25.0156V11.2476H25.9271V9.96313Z" fill="#263238"/>
<path d="M24.0717 11.9871H23.1602V13.2715H24.0717V11.9871Z" fill="#263238"/>
<path d="M25.9271 11.9871H25.0156V13.2715H25.9271V11.9871Z" fill="#263238"/>
<path d="M24.0717 14.0112H23.1602V15.2957H24.0717V14.0112Z" fill="#263238"/>
<path d="M25.9271 14.0112H25.0156V15.2957H25.9271V14.0112Z" fill="#263238"/>
<path d="M24.0717 16.0354H23.1602V17.3199H24.0717V16.0354Z" fill="#263238"/>
<path d="M25.9271 16.0354H25.0156V17.3199H25.9271V16.0354Z" fill="#263238"/>
<path d="M28.0546 5.91479H27.5308V7.19928H28.0546V5.91479Z" fill="#263238"/>
<path d="M29.121 5.91479H28.5972V7.19928H29.121V5.91479Z" fill="#263238"/>
<path d="M28.0546 7.93896H27.5308V9.22345H28.0546V7.93896Z" fill="#263238"/>
<path d="M29.121 7.93896H28.5972V9.22345H29.121V7.93896Z" fill="#263238"/>
<path d="M28.0546 9.96313H27.5308V11.2476H28.0546V9.96313Z" fill="#263238"/>
<path d="M29.121 9.96313H28.5972V11.2476H29.121V9.96313Z" fill="#263238"/>
<path d="M28.0546 11.9871H27.5308V13.2715H28.0546V11.9871Z" fill="#263238"/>
<path d="M29.121 11.9871H28.5972V13.2715H29.121V11.9871Z" fill="#263238"/>
<path d="M28.0546 14.0112H27.5308V15.2957H28.0546V14.0112Z" fill="#263238"/>
<path d="M29.121 14.0112H28.5972V15.2957H29.121V14.0112Z" fill="#263238"/>
<path d="M28.0546 16.0354H27.5308V17.3199H28.0546V16.0354Z" fill="#263238"/>
<path d="M29.121 16.0354H28.5972V17.3199H29.121V16.0354Z" fill="#263238"/>
<path d="M14.0011 1.00586H11.3596V18.9072H14.0011V1.00586Z" fill="url(#paint14_linear_12949_69095)"/>
<path d="M14.0009 2.00842H11.3594V2.19656H14.0009V2.00842Z" fill="url(#paint15_linear_12949_69095)"/>
<path d="M12.1178 2.74951H11.6316V3.79615H12.1178V2.74951Z" fill="#263238"/>
<path d="M12.1178 4.07019H11.6316V5.11683H12.1178V4.07019Z" fill="#263238"/>
<path d="M12.1178 5.39062H11.6316V6.43726H12.1178V5.39062Z" fill="#263238"/>
<path d="M12.1178 6.71045H11.6316V7.75709H12.1178V6.71045Z" fill="#263238"/>
<path d="M12.1178 8.03113H11.6316V9.07777H12.1178V8.03113Z" fill="#263238"/>
<path d="M12.1178 9.35181H11.6316V10.3984H12.1178V9.35181Z" fill="#263238"/>
<path d="M12.1178 10.6716H11.6316V11.7183H12.1178V10.6716Z" fill="#263238"/>
<path d="M12.1178 11.9923H11.6316V13.0389H12.1178V11.9923Z" fill="#263238"/>
<path d="M12.1178 13.313H11.6316V14.3596H12.1178V13.313Z" fill="#263238"/>
<path d="M12.1178 14.6328H11.6316V15.6795H12.1178V14.6328Z" fill="#263238"/>
<path d="M12.1178 15.9535H11.6316V17.0001H12.1178V15.9535Z" fill="#263238"/>
<path d="M12.1178 17.2743H11.6316V18.3209H12.1178V17.2743Z" fill="#263238"/>
<path d="M12.1178 2.74951H11.6316V3.79615H12.1178V2.74951Z" fill="#263238"/>
<path d="M12.1178 4.07019H11.6316V5.11683H12.1178V4.07019Z" fill="#263238"/>
<path d="M12.1178 5.39062H11.6316V6.43726H12.1178V5.39062Z" fill="#263238"/>
<path d="M12.1178 6.71045H11.6316V7.75709H12.1178V6.71045Z" fill="#263238"/>
<path d="M12.1178 8.03113H11.6316V9.07777H12.1178V8.03113Z" fill="#263238"/>
<path d="M12.1178 9.35181H11.6316V10.3984H12.1178V9.35181Z" fill="#263238"/>
<path d="M12.1178 10.6716H11.6316V11.7183H12.1178V10.6716Z" fill="#263238"/>
<path d="M12.1178 11.9923H11.6316V13.0389H12.1178V11.9923Z" fill="#263238"/>
<path d="M12.1178 13.313H11.6316V14.3596H12.1178V13.313Z" fill="#263238"/>
<path d="M12.1178 14.6328H11.6316V15.6795H12.1178V14.6328Z" fill="#263238"/>
<path d="M12.1178 15.9535H11.6316V17.0001H12.1178V15.9535Z" fill="#263238"/>
<path d="M12.1178 17.2743H11.6316V18.3209H12.1178V17.2743Z" fill="#263238"/>
<path d="M12.9232 2.74951H12.437V3.79615H12.9232V2.74951Z" fill="#263238"/>
<path d="M12.9232 4.07019H12.437V5.11683H12.9232V4.07019Z" fill="#263238"/>
<path d="M12.9232 5.39062H12.437V6.43726H12.9232V5.39062Z" fill="#263238"/>
<path d="M12.9232 6.71045H12.437V7.75709H12.9232V6.71045Z" fill="#263238"/>
<path d="M12.9232 8.03113H12.437V9.07777H12.9232V8.03113Z" fill="#263238"/>
<path d="M12.9232 9.35181H12.437V10.3984H12.9232V9.35181Z" fill="#263238"/>
<path d="M12.9232 10.6716H12.437V11.7183H12.9232V10.6716Z" fill="#263238"/>
<path d="M12.9232 11.9923H12.437V13.0389H12.9232V11.9923Z" fill="#263238"/>
<path d="M12.9232 13.313H12.437V14.3596H12.9232V13.313Z" fill="#263238"/>
<path d="M12.9232 14.6328H12.437V15.6795H12.9232V14.6328Z" fill="#263238"/>
<path d="M12.9232 15.9535H12.437V17.0001H12.9232V15.9535Z" fill="#263238"/>
<path d="M12.9232 17.2743H12.437V18.3209H12.9232V17.2743Z" fill="#263238"/>
<path d="M12.9232 2.74951H12.437V3.79615H12.9232V2.74951Z" fill="#263238"/>
<path d="M12.9232 4.07019H12.437V5.11683H12.9232V4.07019Z" fill="#263238"/>
<path d="M12.9232 5.39062H12.437V6.43726H12.9232V5.39062Z" fill="#263238"/>
<path d="M12.9232 6.71045H12.437V7.75709H12.9232V6.71045Z" fill="#263238"/>
<path d="M12.9232 8.03113H12.437V9.07777H12.9232V8.03113Z" fill="#263238"/>
<path d="M12.9232 9.35181H12.437V10.3984H12.9232V9.35181Z" fill="#263238"/>
<path d="M12.9232 10.6716H12.437V11.7183H12.9232V10.6716Z" fill="#263238"/>
<path d="M12.9232 11.9923H12.437V13.0389H12.9232V11.9923Z" fill="#263238"/>
<path d="M12.9232 13.313H12.437V14.3596H12.9232V13.313Z" fill="#263238"/>
<path d="M12.9232 14.6328H12.437V15.6795H12.9232V14.6328Z" fill="#263238"/>
<path d="M12.9232 15.9535H12.437V17.0001H12.9232V15.9535Z" fill="#263238"/>
<path d="M12.9232 17.2743H12.437V18.3209H12.9232V17.2743Z" fill="#263238"/>
<path d="M13.7286 2.74951H13.2424V3.79615H13.7286V2.74951Z" fill="#263238"/>
<path d="M13.7286 4.07019H13.2424V5.11683H13.7286V4.07019Z" fill="#263238"/>
<path d="M13.7286 5.39062H13.2424V6.43726H13.7286V5.39062Z" fill="#263238"/>
<path d="M13.7286 6.71045H13.2424V7.75709H13.7286V6.71045Z" fill="#263238"/>
<path d="M13.7286 8.03113H13.2424V9.07777H13.7286V8.03113Z" fill="#263238"/>
<path d="M13.7286 9.35181H13.2424V10.3984H13.7286V9.35181Z" fill="#263238"/>
<path d="M13.7286 10.6716H13.2424V11.7183H13.7286V10.6716Z" fill="#263238"/>
<path d="M13.7286 11.9923H13.2424V13.0389H13.7286V11.9923Z" fill="#263238"/>
<path d="M13.7286 13.313H13.2424V14.3596H13.7286V13.313Z" fill="#263238"/>
<path d="M13.7286 14.6328H13.2424V15.6795H13.7286V14.6328Z" fill="#263238"/>
<path d="M13.7286 15.9535H13.2424V17.0001H13.7286V15.9535Z" fill="#263238"/>
<path d="M13.7286 17.2743H13.2424V18.3209H13.7286V17.2743Z" fill="#263238"/>
<path d="M13.7286 2.74951H13.2424V3.79615H13.7286V2.74951Z" fill="#263238"/>
<path d="M13.7286 4.07019H13.2424V5.11683H13.7286V4.07019Z" fill="#263238"/>
<path d="M13.7286 5.39062H13.2424V6.43726H13.7286V5.39062Z" fill="#263238"/>
<path d="M13.7286 6.71045H13.2424V7.75709H13.7286V6.71045Z" fill="#263238"/>
<path d="M13.7286 8.03113H13.2424V9.07777H13.7286V8.03113Z" fill="#263238"/>
<path d="M13.7286 9.35181H13.2424V10.3984H13.7286V9.35181Z" fill="#263238"/>
<path d="M13.7286 10.6716H13.2424V11.7183H13.7286V10.6716Z" fill="#263238"/>
<path d="M13.7286 11.9923H13.2424V13.0389H13.7286V11.9923Z" fill="#263238"/>
<path d="M13.7286 13.313H13.2424V14.3596H13.7286V13.313Z" fill="#263238"/>
<path d="M13.7286 14.6328H13.2424V15.6795H13.7286V14.6328Z" fill="#263238"/>
<path d="M13.7286 15.9535H13.2424V17.0001H13.7286V15.9535Z" fill="#263238"/>
<path d="M13.7286 17.2743H13.2424V18.3209H13.7286V17.2743Z" fill="#263238"/>
<path d="M11.3594 1.00574H6.84375V18.9071H11.3594V1.00574Z" fill="url(#paint16_linear_12949_69095)"/>
<path d="M11.3594 2.00842H6.84375V2.19656H11.3594V2.00842Z" fill="url(#paint17_linear_12949_69095)"/>
<path d="M11.3595 0.00012207H8.45337V1.00586H11.3595V0.00012207Z" fill="url(#paint18_linear_12949_69095)"/>
<path d="M11.3595 1.00574L12.7251 1.00574V4.05312e-06L11.3595 4.05312e-06V1.00574Z" fill="#263238"/>
<path d="M8.11702 2.74939H7.32764V3.79603H8.11702V2.74939Z" fill="#263238"/>
<path d="M8.11702 4.07007H7.32764V5.11671H8.11702V4.07007Z" fill="#263238"/>
<path d="M8.11702 5.3905H7.32764V6.43714H8.11702V5.3905Z" fill="#263238"/>
<path d="M8.11702 6.71033H7.32764V7.75697H8.11702V6.71033Z" fill="#263238"/>
<path d="M8.11702 8.03101H7.32764V9.07764H8.11702V8.03101Z" fill="#263238"/>
<path d="M8.11702 9.35168H7.32764V10.3983H8.11702V9.35168Z" fill="#263238"/>
<path d="M8.11702 10.6715H7.32764V11.7181H8.11702V10.6715Z" fill="#263238"/>
<path d="M8.11702 11.9922H7.32764V13.0388H8.11702V11.9922Z" fill="#263238"/>
<path d="M8.11702 13.3129H7.32764V14.3595H8.11702V13.3129Z" fill="#263238"/>
<path d="M8.11702 14.6327H7.32764V15.6793H8.11702V14.6327Z" fill="#263238"/>
<path d="M8.11702 15.9534H7.32764V17H8.11702V15.9534Z" fill="#263238"/>
<path d="M8.11702 17.2742H7.32764V18.3208H8.11702V17.2742Z" fill="#263238"/>
<path d="M8.11702 2.74939H7.32764V3.79603H8.11702V2.74939Z" fill="#263238"/>
<path d="M8.11702 4.07007H7.32764V5.11671H8.11702V4.07007Z" fill="#263238"/>
<path d="M8.11702 5.3905H7.32764V6.43714H8.11702V5.3905Z" fill="#263238"/>
<path d="M8.11702 6.71033H7.32764V7.75697H8.11702V6.71033Z" fill="#263238"/>
<path d="M8.11702 8.03101H7.32764V9.07764H8.11702V8.03101Z" fill="#263238"/>
<path d="M8.11702 9.35168H7.32764V10.3983H8.11702V9.35168Z" fill="#263238"/>
<path d="M8.11702 10.6715H7.32764V11.7181H8.11702V10.6715Z" fill="#263238"/>
<path d="M8.11702 11.9922H7.32764V13.0388H8.11702V11.9922Z" fill="#263238"/>
<path d="M8.11702 13.3129H7.32764V14.3595H8.11702V13.3129Z" fill="#263238"/>
<path d="M8.11702 14.6327H7.32764V15.6793H8.11702V14.6327Z" fill="#263238"/>
<path d="M8.11702 15.9534H7.32764V17H8.11702V15.9534Z" fill="#263238"/>
<path d="M8.11702 17.2742H7.32764V18.3208H8.11702V17.2742Z" fill="#263238"/>
<path d="M9.42463 2.74939H8.63525V3.79603H9.42463V2.74939Z" fill="#263238"/>
<path d="M9.42463 4.07007H8.63525V5.11671H9.42463V4.07007Z" fill="#263238"/>
<path d="M9.42463 5.3905H8.63525V6.43714H9.42463V5.3905Z" fill="#263238"/>
<path d="M9.42463 6.71033H8.63525V7.75697H9.42463V6.71033Z" fill="#263238"/>
<path d="M9.42463 8.03101H8.63525V9.07764H9.42463V8.03101Z" fill="#263238"/>
<path d="M9.42463 9.35168H8.63525V10.3983H9.42463V9.35168Z" fill="#263238"/>
<path d="M9.42463 10.6715H8.63525V11.7181H9.42463V10.6715Z" fill="#263238"/>
<path d="M9.42463 11.9922H8.63525V13.0388H9.42463V11.9922Z" fill="#263238"/>
<path d="M9.42463 13.3129H8.63525V14.3595H9.42463V13.3129Z" fill="#263238"/>
<path d="M9.42463 14.6327H8.63525V15.6793H9.42463V14.6327Z" fill="#263238"/>
<path d="M9.42463 15.9534H8.63525V17H9.42463V15.9534Z" fill="#263238"/>
<path d="M9.42463 17.2742H8.63525V18.3208H9.42463V17.2742Z" fill="#263238"/>
<path d="M9.42463 2.74939H8.63525V3.79603H9.42463V2.74939Z" fill="#263238"/>
<path d="M9.42463 4.07007H8.63525V5.11671H9.42463V4.07007Z" fill="#263238"/>
<path d="M9.42463 5.3905H8.63525V6.43714H9.42463V5.3905Z" fill="#263238"/>
<path d="M9.42463 6.71033H8.63525V7.75697H9.42463V6.71033Z" fill="#263238"/>
<path d="M9.42463 8.03101H8.63525V9.07764H9.42463V8.03101Z" fill="#263238"/>
<path d="M9.42463 9.35168H8.63525V10.3983H9.42463V9.35168Z" fill="#263238"/>
<path d="M9.42463 10.6715H8.63525V11.7181H9.42463V10.6715Z" fill="#263238"/>
<path d="M9.42463 11.9922H8.63525V13.0388H9.42463V11.9922Z" fill="#263238"/>
<path d="M9.42463 13.3129H8.63525V14.3595H9.42463V13.3129Z" fill="#263238"/>
<path d="M9.42463 14.6327H8.63525V15.6793H9.42463V14.6327Z" fill="#263238"/>
<path d="M9.42463 15.9534H8.63525V17H9.42463V15.9534Z" fill="#263238"/>
<path d="M9.42463 17.2742H8.63525V18.3208H9.42463V17.2742Z" fill="#263238"/>
<path d="M10.7323 2.74939H9.94287V3.79603H10.7323V2.74939Z" fill="#263238"/>
<path d="M10.7323 4.07007H9.94287V5.11671H10.7323V4.07007Z" fill="#263238"/>
<path d="M10.7323 5.3905H9.94287V6.43714H10.7323V5.3905Z" fill="#263238"/>
<path d="M10.7323 6.71033H9.94287V7.75697H10.7323V6.71033Z" fill="#263238"/>
<path d="M10.7323 8.03101H9.94287V9.07764H10.7323V8.03101Z" fill="#263238"/>
<path d="M10.7323 9.35168H9.94287V10.3983H10.7323V9.35168Z" fill="#263238"/>
<path d="M10.7323 10.6715H9.94287V11.7181H10.7323V10.6715Z" fill="#263238"/>
<path d="M10.7323 11.9922H9.94287V13.0388H10.7323V11.9922Z" fill="#263238"/>
<path d="M10.7323 13.3129H9.94287V14.3595H10.7323V13.3129Z" fill="#263238"/>
<path d="M10.7323 14.6327H9.94287V15.6793H10.7323V14.6327Z" fill="#263238"/>
<path d="M10.7323 15.9534H9.94287V17H10.7323V15.9534Z" fill="#263238"/>
<path d="M10.7323 17.2742H9.94287V18.3208H10.7323V17.2742Z" fill="#263238"/>
<path d="M10.7323 2.74939H9.94287V3.79603H10.7323V2.74939Z" fill="#263238"/>
<path d="M10.7323 4.07007H9.94287V5.11671H10.7323V4.07007Z" fill="#263238"/>
<path d="M10.7323 5.3905H9.94287V6.43714H10.7323V5.3905Z" fill="#263238"/>
<path d="M10.7323 6.71033H9.94287V7.75697H10.7323V6.71033Z" fill="#263238"/>
<path d="M10.7323 8.03101H9.94287V9.07764H10.7323V8.03101Z" fill="#263238"/>
<path d="M10.7323 9.35168H9.94287V10.3983H10.7323V9.35168Z" fill="#263238"/>
<path d="M10.7323 10.6715H9.94287V11.7181H10.7323V10.6715Z" fill="#263238"/>
<path d="M10.7323 11.9922H9.94287V13.0388H10.7323V11.9922Z" fill="#263238"/>
<path d="M10.7323 13.3129H9.94287V14.3595H10.7323V13.3129Z" fill="#263238"/>
<path d="M10.7323 14.6327H9.94287V15.6793H10.7323V14.6327Z" fill="#263238"/>
<path d="M10.7323 15.9534H9.94287V17H10.7323V15.9534Z" fill="#263238"/>
<path d="M10.7323 17.2742H9.94287V18.3208H10.7323V17.2742Z" fill="#263238"/>
<path d="M5.12991 18.9077H1.55005V8.57319L5.12991 6.43811V18.9077Z" fill="url(#paint19_linear_12949_69095)"/>
<path d="M4.66973 18.9078H1.95288V8.86246L4.66973 7.24207V18.9078Z" fill="url(#paint20_linear_12949_69095)"/>
<path opacity="0.3" d="M4.66973 18.9078H1.95288V8.86246L4.66973 7.24207V18.9078Z" fill="black"/>
<g opacity="0.3">
<path d="M4.66979 9.03589H2.26416V9.11556H4.66979V9.03589Z" fill="black"/>
<path d="M4.66979 9.68884H2.26416V9.76852H4.66979V9.68884Z" fill="black"/>
<path d="M4.66979 10.3417H2.26416V10.4213H4.66979V10.3417Z" fill="black"/>
<path d="M4.66979 10.9945H2.26416V11.0742H4.66979V10.9945Z" fill="black"/>
<path d="M4.66979 11.6471H2.26416V11.7268H4.66979V11.6471Z" fill="black"/>
<path d="M4.66979 12.2999H2.26416V12.3796H4.66979V12.2999Z" fill="black"/>
<path d="M4.66979 12.9528H2.26416V13.0324H4.66979V12.9528Z" fill="black"/>
<path d="M4.66979 13.6053H2.26416V13.685H4.66979V13.6053Z" fill="black"/>
<path d="M4.66979 14.2582H2.26416V14.3379H4.66979V14.2582Z" fill="black"/>
<path d="M4.66979 14.9111H2.26416V14.9908H4.66979V14.9111Z" fill="black"/>
<path d="M4.66979 15.564H2.26416V15.6436H4.66979V15.564Z" fill="black"/>
<path d="M4.66979 16.2168H2.26416V16.2965H4.66979V16.2168Z" fill="black"/>
<path d="M4.66979 16.8694H2.26416V16.9491H4.66979V16.8694Z" fill="black"/>
<path d="M4.66979 17.5222H2.26416V17.6019H4.66979V17.5222Z" fill="black"/>
<path d="M4.66979 18.1752H2.26416V18.2548H4.66979V18.1752Z" fill="black"/>
<path d="M4.66979 18.828H2.26416V18.9077H4.66979V18.828Z" fill="black"/>
<path d="M3.42383 8.27746L3.42383 18.9076H3.51041L3.51041 8.27746H3.42383Z" fill="black"/>
</g>
<path d="M4.66968 7.24146V7.60105L2.26404 9.0358V18.9073H1.95312V8.86172L4.66968 7.24146Z" fill="url(#paint21_linear_12949_69095)"/>
<path opacity="0.2" d="M4.66968 7.24146V7.60105L2.26404 9.0358V18.9073H1.95312V8.86172L4.66968 7.24146Z" fill="black"/>
<path d="M8.28367 6.43835H5.12988V18.9079H8.28367V6.43835Z" fill="url(#paint22_linear_12949_69095)"/>
<path opacity="0.2" d="M8.28367 6.43835H5.12988V18.9079H8.28367V6.43835Z" fill="black"/>
<g opacity="0.2">
<path d="M7.97761 7.24182H5.43579V7.52402H7.97761V7.24182Z" fill="black"/>
<path d="M7.97761 7.88123H5.43579V8.16342H7.97761V7.88123Z" fill="black"/>
<path d="M7.97761 8.52087H5.43579V8.80307H7.97761V8.52087Z" fill="black"/>
<path d="M7.97761 9.16028H5.43579V9.44248H7.97761V9.16028Z" fill="black"/>
<path d="M7.97761 9.79968H5.43579V10.0819H7.97761V9.79968Z" fill="black"/>
<path d="M7.97761 10.4391H5.43579V10.7213H7.97761V10.4391Z" fill="black"/>
<path d="M7.97761 11.0787H5.43579V11.3609H7.97761V11.0787Z" fill="black"/>
<path d="M7.97761 11.7181H5.43579V12.0003H7.97761V11.7181Z" fill="black"/>
<path d="M7.97761 12.3575H5.43579V12.6397H7.97761V12.3575Z" fill="black"/>
<path d="M7.97761 12.9969H5.43579V13.2791H7.97761V12.9969Z" fill="black"/>
<path d="M7.97761 13.6366H5.43579V13.9188H7.97761V13.6366Z" fill="black"/>
<path d="M7.97761 14.276H5.43579V14.5582H7.97761V14.276Z" fill="black"/>
<path d="M7.97761 14.9154H5.43579V15.1976H7.97761V14.9154Z" fill="black"/>
<path d="M7.97761 15.5551H5.43579V15.8373H7.97761V15.5551Z" fill="black"/>
<path d="M7.97761 16.1945H5.43579V16.4767H7.97761V16.1945Z" fill="black"/>
<path d="M7.97761 16.8339H5.43579V17.1161H7.97761V16.8339Z" fill="black"/>
<path d="M7.97761 17.4733H5.43579V17.7555H7.97761V17.4733Z" fill="black"/>
<path d="M7.97761 18.1127H5.43579V18.3949H7.97761V18.1127Z" fill="black"/>
</g>
<path d="M21.3248 5.70422H18.4871V18.907H21.3248V5.70422Z" fill="url(#paint23_linear_12949_69095)"/>
<path opacity="0.2" d="M21.3248 5.70422H18.4871V18.907H21.3248V5.70422Z" fill="black"/>
<path d="M18.4872 5.70435H21.4946V5.27168H18.4872V5.70435Z" fill="url(#paint24_linear_12949_69095)"/>
<path d="M18.4872 5.27136H21.0371V4.59589H18.4872V5.27136Z" fill="url(#paint25_linear_12949_69095)"/>
<path opacity="0.2" d="M18.4872 5.27136H21.0371V4.59589H18.4872V5.27136Z" fill="black"/>
<path d="M18.4869 4.59607H20.4377V3.10623H18.4869V4.59607Z" fill="url(#paint26_linear_12949_69095)"/>
<path opacity="0.3" d="M18.4869 4.59607H20.4377V3.10623H18.4869V4.59607Z" fill="black"/>
<g opacity="0.3">
<path d="M19.144 6.2052H18.759V7.59388H19.144V6.2052Z" fill="black"/>
</g>
<g opacity="0.3">
<path d="M19.144 8.09692H18.759V9.4856H19.144V8.09692Z" fill="black"/>
</g>
<g opacity="0.3">
<path d="M19.1442 9.98865H18.7593V11.3773H19.1442V9.98865Z" fill="black"/>
</g>
<g opacity="0.3">
<path d="M19.1442 11.8802H18.7593V13.2689H19.1442V11.8802Z" fill="black"/>
</g>
<g opacity="0.3">
<path d="M19.1442 13.7725H18.7593V15.1611H19.1442V13.7725Z" fill="black"/>
</g>
<g opacity="0.3">
<path d="M19.1442 15.6643H18.7593V17.053H19.1442V15.6643Z" fill="black"/>
</g>
<g opacity="0.3">
<path d="M19.7802 6.2052H19.3953V7.59388H19.7802V6.2052Z" fill="black"/>
</g>
<g opacity="0.3">
<path d="M19.7802 8.09692H19.3953V9.4856H19.7802V8.09692Z" fill="black"/>
</g>
<g opacity="0.3">
<path d="M19.7802 9.98865H19.3953V11.3773H19.7802V9.98865Z" fill="black"/>
</g>
<g opacity="0.3">
<path d="M19.7802 11.8802H19.3953V13.2689H19.7802V11.8802Z" fill="black"/>
</g>
<g opacity="0.3">
<path d="M19.7802 13.7725H19.3953V15.1611H19.7802V13.7725Z" fill="black"/>
</g>
<g opacity="0.3">
<path d="M19.7802 15.6643H19.3953V17.053H19.7802V15.6643Z" fill="black"/>
</g>
<g opacity="0.3">
<path d="M20.4164 6.2052H20.0315V7.59388H20.4164V6.2052Z" fill="black"/>
</g>
<g opacity="0.3">
<path d="M20.4164 8.09692H20.0315V9.4856H20.4164V8.09692Z" fill="black"/>
</g>
<g opacity="0.3">
<path d="M20.4164 9.98865H20.0315V11.3773H20.4164V9.98865Z" fill="black"/>
</g>
<g opacity="0.3">
<path d="M20.4164 11.8802H20.0315V13.2689H20.4164V11.8802Z" fill="black"/>
</g>
<g opacity="0.3">
<path d="M20.4164 13.7725H20.0315V15.1611H20.4164V13.7725Z" fill="black"/>
</g>
<g opacity="0.3">
<path d="M20.4164 15.6643H20.0315V17.053H20.4164V15.6643Z" fill="black"/>
</g>
<g opacity="0.3">
<path d="M21.0526 6.2052H20.6677V7.59388H21.0526V6.2052Z" fill="black"/>
</g>
<g opacity="0.3">
<path d="M21.0526 8.09692H20.6677V9.4856H21.0526V8.09692Z" fill="black"/>
</g>
<g opacity="0.3">
<path d="M21.0529 9.98865H20.668V11.3773H21.0529V9.98865Z" fill="black"/>
</g>
<g opacity="0.3">
<path d="M21.0529 11.8802H20.668V13.2689H21.0529V11.8802Z" fill="black"/>
</g>
<g opacity="0.3">
<path d="M21.0529 13.7725H20.668V15.1611H21.0529V13.7725Z" fill="black"/>
</g>
<g opacity="0.3">
<path d="M21.0529 15.6643H20.668V17.053H21.0529V15.6643Z" fill="black"/>
</g>
<path d="M18.487 5.70459H12.6702V18.9073H18.487V5.70459Z" fill="url(#paint27_linear_12949_69095)"/>
<path d="M18.487 4.59644H12.9487V5.2719H18.487V4.59644Z" fill="url(#paint28_linear_12949_69095)"/>
<path d="M18.4869 3.10632H14.3196V4.59616H18.4869V3.10632Z" fill="url(#paint29_linear_12949_69095)"/>
<path opacity="0.2" d="M18.4869 3.10632H14.3196V4.59616H18.4869V3.10632Z" fill="black"/>
<path d="M18.4871 5.27185H12.4961V5.70451H18.4871V5.27185Z" fill="url(#paint30_linear_12949_69095)"/>
<path opacity="0.2" d="M18.4871 5.27185H12.4961V5.70451H18.4871V5.27185Z" fill="black"/>
<g opacity="0.3">
<path d="M14.0158 6.20435H13.2263V7.59302H14.0158V6.20435Z" fill="black"/>
</g>
<g opacity="0.3">
<path d="M14.0158 8.09607H13.2263V9.48475H14.0158V8.09607Z" fill="black"/>
</g>
<g opacity="0.3">
<path d="M14.0158 9.98816H13.2263V11.3768H14.0158V9.98816Z" fill="black"/>
</g>
<g opacity="0.3">
<path d="M14.0158 11.8801H13.2263V13.2688H14.0158V11.8801Z" fill="black"/>
</g>
<g opacity="0.3">
<path d="M14.0158 13.7717H13.2263V15.1604H14.0158V13.7717Z" fill="black"/>
</g>
<g opacity="0.3">
<path d="M14.0158 15.6641H13.2263V17.0527H14.0158V15.6641Z" fill="black"/>
</g>
<g opacity="0.3">
<path d="M15.3208 6.20435H14.5312V7.59302H15.3208V6.20435Z" fill="black"/>
</g>
<g opacity="0.3">
<path d="M15.3208 8.09607H14.5312V9.48475H15.3208V8.09607Z" fill="black"/>
</g>
<g opacity="0.3">
<path d="M15.3208 9.98816H14.5312V11.3768H15.3208V9.98816Z" fill="black"/>
</g>
<g opacity="0.3">
<path d="M15.3208 11.8801H14.5312V13.2688H15.3208V11.8801Z" fill="black"/>
</g>
<g opacity="0.3">
<path d="M15.3208 13.7717H14.5312V15.1604H15.3208V13.7717Z" fill="black"/>
</g>
<g opacity="0.3">
<path d="M15.3208 15.6641H14.5312V17.0527H15.3208V15.6641Z" fill="black"/>
</g>
<g opacity="0.3">
<path d="M16.626 6.20435H15.8364V7.59302H16.626V6.20435Z" fill="black"/>
</g>
<g opacity="0.3">
<path d="M16.626 8.09607H15.8364V9.48475H16.626V8.09607Z" fill="black"/>
</g>
<g opacity="0.3">
<path d="M16.626 9.98816H15.8364V11.3768H16.626V9.98816Z" fill="black"/>
</g>
<g opacity="0.3">
<path d="M16.626 11.8801H15.8364V13.2688H16.626V11.8801Z" fill="black"/>
</g>
<g opacity="0.3">
<path d="M16.626 13.7717H15.8364V15.1604H16.626V13.7717Z" fill="black"/>
</g>
<g opacity="0.3">
<path d="M16.626 15.6641H15.8364V17.0527H16.626V15.6641Z" fill="black"/>
</g>
<g opacity="0.3">
<path d="M17.931 6.20435H17.1414V7.59302H17.931V6.20435Z" fill="black"/>
</g>
<g opacity="0.3">
<path d="M17.931 8.09607H17.1414V9.48475H17.931V8.09607Z" fill="black"/>
</g>
<g opacity="0.3">
<path d="M17.931 9.98816H17.1414V11.3768H17.931V9.98816Z" fill="black"/>
</g>
<g opacity="0.3">
<path d="M17.931 11.8801H17.1414V13.2688H17.931V11.8801Z" fill="black"/>
</g>
<g opacity="0.3">
<path d="M17.931 13.7717H17.1414V15.1604H17.931V13.7717Z" fill="black"/>
</g>
<g opacity="0.3">
<path d="M17.931 15.6641H17.1414V17.0527H17.931V15.6641Z" fill="black"/>
</g>
<path opacity="0.3" d="M16.6258 17.5986H14.5312V18.9072H16.6258V17.5986Z" fill="black"/>
<path d="M27.1464 11.3788H24.3086V18.9074H27.1464V11.3788Z" fill="url(#paint31_linear_12949_69095)"/>
<path opacity="0.2" d="M27.1464 11.3788H24.3086V18.9074H27.1464V11.3788Z" fill="black"/>
<path d="M24.3087 11.3788H27.3162V10.9461H24.3087V11.3788Z" fill="url(#paint32_linear_12949_69095)"/>
<path d="M24.3085 10.946H26.8584V10.2706H24.3085V10.946Z" fill="url(#paint33_linear_12949_69095)"/>
<path opacity="0.2" d="M24.3085 10.946H26.8584V10.2706H24.3085V10.946Z" fill="black"/>
<g opacity="0.3">
<path d="M24.9657 11.88H24.5808V13.2687H24.9657V11.88Z" fill="black"/>
</g>
<g opacity="0.3">
<path d="M24.9657 13.7717H24.5808V15.1604H24.9657V13.7717Z" fill="black"/>
</g>
<g opacity="0.3">
<path d="M24.9657 15.6635H24.5808V17.0521H24.9657V15.6635Z" fill="black"/>
</g>
<g opacity="0.3">
<path d="M25.602 11.88H25.217V13.2687H25.602V11.88Z" fill="black"/>
</g>
<g opacity="0.3">
<path d="M25.602 13.7717H25.217V15.1604H25.602V13.7717Z" fill="black"/>
</g>
<g opacity="0.3">
<path d="M25.602 15.6635H25.217V17.0521H25.602V15.6635Z" fill="black"/>
</g>
<g opacity="0.3">
<path d="M26.2382 11.88H25.8533V13.2687H26.2382V11.88Z" fill="black"/>
</g>
<g opacity="0.3">
<path d="M26.2382 13.7717H25.8533V15.1604H26.2382V13.7717Z" fill="black"/>
</g>
<g opacity="0.3">
<path d="M26.2382 15.6635H25.8533V17.0521H26.2382V15.6635Z" fill="black"/>
</g>
<g opacity="0.3">
<path d="M26.8747 11.88H26.4897V13.2687H26.8747V11.88Z" fill="black"/>
</g>
<g opacity="0.3">
<path d="M26.8747 13.7717H26.4897V15.1604H26.8747V13.7717Z" fill="black"/>
</g>
<g opacity="0.3">
<path d="M26.8744 15.6635H26.4895V17.0521H26.8744V15.6635Z" fill="black"/>
</g>
<path d="M24.3088 11.3788H18.4919V18.9074H24.3088V11.3788Z" fill="url(#paint34_linear_12949_69095)"/>
<path d="M24.3087 10.2708H18.7705V10.9462H24.3087V10.2708Z" fill="url(#paint35_linear_12949_69095)"/>
<path d="M24.3088 10.946H18.3179V11.3787H24.3088V10.946Z" fill="url(#paint36_linear_12949_69095)"/>
<path opacity="0.2" d="M24.3088 10.946H18.3179V11.3787H24.3088V10.946Z" fill="black"/>
<g opacity="0.3">
<path d="M19.8374 11.8799H19.0479V13.2686H19.8374V11.8799Z" fill="black"/>
</g>
<g opacity="0.3">
<path d="M19.8374 13.7716H19.0479V15.1603H19.8374V13.7716Z" fill="black"/>
</g>
<g opacity="0.3">
<path d="M19.8376 15.6633H19.0481V17.052H19.8376V15.6633Z" fill="black"/>
</g>
<g opacity="0.3">
<path d="M21.1424 11.8799H20.3528V13.2686H21.1424V11.8799Z" fill="black"/>
</g>
<g opacity="0.3">
<path d="M21.1424 13.7716H20.3528V15.1603H21.1424V13.7716Z" fill="black"/>
</g>
<g opacity="0.3">
<path d="M21.1424 15.6633H20.3528V17.052H21.1424V15.6633Z" fill="black"/>
</g>
<g opacity="0.3">
<path d="M22.4473 11.8799H21.6577V13.2686H22.4473V11.8799Z" fill="black"/>
</g>
<g opacity="0.3">
<path d="M22.4473 13.7716H21.6577V15.1603H22.4473V13.7716Z" fill="black"/>
</g>
<g opacity="0.3">
<path d="M22.4473 15.6633H21.6577V17.052H22.4473V15.6633Z" fill="black"/>
</g>
<g opacity="0.3">
<path d="M23.7525 11.8799H22.9629V13.2686H23.7525V11.8799Z" fill="black"/>
</g>
<g opacity="0.3">
<path d="M23.7525 13.7716H22.9629V15.1603H23.7525V13.7716Z" fill="black"/>
</g>
<g opacity="0.3">
<path d="M23.7525 15.6633H22.9629V17.052H23.7525V15.6633Z" fill="black"/>
</g>
<defs>
<linearGradient id="paint0_linear_12949_69095" x1="24.6184" y1="4.95325" x2="24.6184" y2="18.9072" gradientUnits="userSpaceOnUse">
<stop stop-color="#B947BB"/>
<stop offset="1" stop-color="#542055" stop-opacity="0.1"/>
</linearGradient>
<linearGradient id="paint1_linear_12949_69095" x1="25.2214" y1="3.54895" x2="25.2214" y2="4.95264" gradientUnits="userSpaceOnUse">
<stop stop-color="#B947BB"/>
<stop offset="1" stop-color="#542055" stop-opacity="0.1"/>
</linearGradient>
<linearGradient id="paint2_linear_12949_69095" x1="23.8393" y1="3.76538" x2="23.8393" y2="4.73599" gradientUnits="userSpaceOnUse">
<stop stop-color="#B947BB"/>
<stop offset="1" stop-color="#542055" stop-opacity="0.1"/>
</linearGradient>
<linearGradient id="paint3_linear_12949_69095" x1="24.3921" y1="3.76538" x2="24.3921" y2="4.73599" gradientUnits="userSpaceOnUse">
<stop stop-color="#B947BB"/>
<stop offset="1" stop-color="#542055" stop-opacity="0.1"/>
</linearGradient>
<linearGradient id="paint4_linear_12949_69095" x1="24.945" y1="3.76538" x2="24.945" y2="4.73599" gradientUnits="userSpaceOnUse">
<stop stop-color="#B947BB"/>
<stop offset="1" stop-color="#542055" stop-opacity="0.1"/>
</linearGradient>
<linearGradient id="paint5_linear_12949_69095" x1="25.4978" y1="3.76538" x2="25.4978" y2="4.73599" gradientUnits="userSpaceOnUse">
<stop stop-color="#B947BB"/>
<stop offset="1" stop-color="#542055" stop-opacity="0.1"/>
</linearGradient>
<linearGradient id="paint6_linear_12949_69095" x1="26.0505" y1="3.76538" x2="26.0505" y2="4.73599" gradientUnits="userSpaceOnUse">
<stop stop-color="#B947BB"/>
<stop offset="1" stop-color="#542055" stop-opacity="0.1"/>
</linearGradient>
<linearGradient id="paint7_linear_12949_69095" x1="26.6035" y1="3.76538" x2="26.6035" y2="4.73599" gradientUnits="userSpaceOnUse">
<stop stop-color="#B947BB"/>
<stop offset="1" stop-color="#542055" stop-opacity="0.1"/>
</linearGradient>
<linearGradient id="paint8_linear_12949_69095" x1="27.9093" y1="3.54895" x2="27.9093" y2="4.95264" gradientUnits="userSpaceOnUse">
<stop stop-color="#B947BB"/>
<stop offset="1" stop-color="#542055" stop-opacity="0.1"/>
</linearGradient>
<linearGradient id="paint9_linear_12949_69095" x1="27.439" y1="3.76538" x2="27.439" y2="4.73599" gradientUnits="userSpaceOnUse">
<stop stop-color="#B947BB"/>
<stop offset="1" stop-color="#542055" stop-opacity="0.1"/>
</linearGradient>
<linearGradient id="paint10_linear_12949_69095" x1="27.9093" y1="3.76538" x2="27.9093" y2="4.73599" gradientUnits="userSpaceOnUse">
<stop stop-color="#B947BB"/>
<stop offset="1" stop-color="#542055" stop-opacity="0.1"/>
</linearGradient>
<linearGradient id="paint11_linear_12949_69095" x1="28.3795" y1="3.76538" x2="28.3795" y2="4.73599" gradientUnits="userSpaceOnUse">
<stop stop-color="#B947BB"/>
<stop offset="1" stop-color="#542055" stop-opacity="0.1"/>
</linearGradient>
<linearGradient id="paint12_linear_12949_69095" x1="28.3259" y1="4.95312" x2="28.3259" y2="18.9071" gradientUnits="userSpaceOnUse">
<stop stop-color="#B947BB"/>
<stop offset="1" stop-color="#542055" stop-opacity="0.1"/>
</linearGradient>
<linearGradient id="paint13_linear_12949_69095" x1="25.2216" y1="1.59448" x2="25.2216" y2="2.83813" gradientUnits="userSpaceOnUse">
<stop stop-color="#548DE0"/>
<stop offset="1" stop-color="white"/>
</linearGradient>
<linearGradient id="paint14_linear_12949_69095" x1="12.6804" y1="1.00586" x2="12.6804" y2="18.9072" gradientUnits="userSpaceOnUse">
<stop stop-color="#B947BB"/>
<stop offset="1" stop-color="#542055" stop-opacity="0.1"/>
</linearGradient>
<linearGradient id="paint15_linear_12949_69095" x1="12.6801" y1="2.00842" x2="12.6801" y2="2.19656" gradientUnits="userSpaceOnUse">
<stop stop-color="#B947BB"/>
<stop offset="1" stop-color="#542055" stop-opacity="0.1"/>
</linearGradient>
<linearGradient id="paint16_linear_12949_69095" x1="9.10159" y1="1.00574" x2="9.10159" y2="18.9071" gradientUnits="userSpaceOnUse">
<stop stop-color="#B947BB"/>
<stop offset="1" stop-color="#542055" stop-opacity="0.1"/>
</linearGradient>
<linearGradient id="paint17_linear_12949_69095" x1="9.10159" y1="2.00842" x2="9.10159" y2="2.19656" gradientUnits="userSpaceOnUse">
<stop stop-color="#B947BB"/>
<stop offset="1" stop-color="#542055" stop-opacity="0.1"/>
</linearGradient>
<linearGradient id="paint18_linear_12949_69095" x1="9.90642" y1="0.00012207" x2="9.90642" y2="1.00586" gradientUnits="userSpaceOnUse">
<stop stop-color="#B947BB"/>
<stop offset="1" stop-color="#542055" stop-opacity="0.1"/>
</linearGradient>
<linearGradient id="paint19_linear_12949_69095" x1="3.33998" y1="6.43811" x2="3.33998" y2="18.9077" gradientUnits="userSpaceOnUse">
<stop stop-color="#548DE0"/>
<stop offset="1" stop-color="white"/>
</linearGradient>
<linearGradient id="paint20_linear_12949_69095" x1="3.31131" y1="7.24207" x2="3.31131" y2="18.9078" gradientUnits="userSpaceOnUse">
<stop stop-color="#548DE0"/>
<stop offset="1" stop-color="white"/>
</linearGradient>
<linearGradient id="paint21_linear_12949_69095" x1="3.3114" y1="7.24146" x2="3.3114" y2="18.9073" gradientUnits="userSpaceOnUse">
<stop stop-color="#548DE0"/>
<stop offset="1" stop-color="white"/>
</linearGradient>
<linearGradient id="paint22_linear_12949_69095" x1="6.70677" y1="6.43835" x2="6.70677" y2="18.9079" gradientUnits="userSpaceOnUse">
<stop stop-color="#548DE0"/>
<stop offset="1" stop-color="white"/>
</linearGradient>
<linearGradient id="paint23_linear_12949_69095" x1="19.9059" y1="5.70422" x2="19.9059" y2="18.907" gradientUnits="userSpaceOnUse">
<stop stop-color="#548DE0"/>
<stop offset="1" stop-color="white"/>
</linearGradient>
<linearGradient id="paint24_linear_12949_69095" x1="19.9909" y1="5.70435" x2="19.9909" y2="5.27168" gradientUnits="userSpaceOnUse">
<stop stop-color="#548DE0"/>
<stop offset="1" stop-color="white"/>
</linearGradient>
<linearGradient id="paint25_linear_12949_69095" x1="19.7622" y1="5.27136" x2="19.7622" y2="4.59589" gradientUnits="userSpaceOnUse">
<stop stop-color="#548DE0"/>
<stop offset="1" stop-color="white"/>
</linearGradient>
<linearGradient id="paint26_linear_12949_69095" x1="19.4623" y1="4.59607" x2="19.4623" y2="3.10623" gradientUnits="userSpaceOnUse">
<stop stop-color="#548DE0"/>
<stop offset="1" stop-color="white"/>
</linearGradient>
<linearGradient id="paint27_linear_12949_69095" x1="15.5786" y1="5.70459" x2="15.5786" y2="18.9073" gradientUnits="userSpaceOnUse">
<stop stop-color="#548DE0"/>
<stop offset="1" stop-color="white"/>
</linearGradient>
<linearGradient id="paint28_linear_12949_69095" x1="15.7179" y1="4.59644" x2="15.7179" y2="5.2719" gradientUnits="userSpaceOnUse">
<stop stop-color="#548DE0"/>
<stop offset="1" stop-color="white"/>
</linearGradient>
<linearGradient id="paint29_linear_12949_69095" x1="16.4033" y1="3.10632" x2="16.4033" y2="4.59616" gradientUnits="userSpaceOnUse">
<stop stop-color="#548DE0"/>
<stop offset="1" stop-color="white"/>
</linearGradient>
<linearGradient id="paint30_linear_12949_69095" x1="15.4916" y1="5.27185" x2="15.4916" y2="5.70451" gradientUnits="userSpaceOnUse">
<stop stop-color="#548DE0"/>
<stop offset="1" stop-color="white"/>
</linearGradient>
<linearGradient id="paint31_linear_12949_69095" x1="25.7275" y1="11.3788" x2="25.7275" y2="18.9074" gradientUnits="userSpaceOnUse">
<stop stop-color="#548DE0"/>
<stop offset="1" stop-color="white"/>
</linearGradient>
<linearGradient id="paint32_linear_12949_69095" x1="25.8125" y1="11.3788" x2="25.8125" y2="10.9461" gradientUnits="userSpaceOnUse">
<stop stop-color="#548DE0"/>
<stop offset="1" stop-color="white"/>
</linearGradient>
<linearGradient id="paint33_linear_12949_69095" x1="25.5834" y1="10.946" x2="25.5834" y2="10.2706" gradientUnits="userSpaceOnUse">
<stop stop-color="#548DE0"/>
<stop offset="1" stop-color="white"/>
</linearGradient>
<linearGradient id="paint34_linear_12949_69095" x1="21.4004" y1="11.3788" x2="21.4004" y2="18.9074" gradientUnits="userSpaceOnUse">
<stop stop-color="#548DE0"/>
<stop offset="1" stop-color="white"/>
</linearGradient>
<linearGradient id="paint35_linear_12949_69095" x1="21.5396" y1="10.2708" x2="21.5396" y2="10.9462" gradientUnits="userSpaceOnUse">
<stop stop-color="#548DE0"/>
<stop offset="1" stop-color="white"/>
</linearGradient>
<linearGradient id="paint36_linear_12949_69095" x1="21.3134" y1="10.946" x2="21.3134" y2="11.3787" gradientUnits="userSpaceOnUse">
<stop stop-color="#548DE0"/>
<stop offset="1" stop-color="white"/>
</linearGradient>
</defs>
</svg>
