<svg width="26" height="26" viewBox="0 0 26 26" fill="none" xmlns="http://www.w3.org/2000/svg">
<path d="M0 7.8V3.8743e-08H1.73333V7.8C1.73333 8.48956 2.00726 9.15088 2.49486 9.63848C2.98245 10.1261 3.64377 10.4 4.33333 10.4C5.0229 10.4 5.68422 10.1261 6.17181 9.63848C6.65941 9.15088 6.93333 8.48956 6.93333 7.8V2.6C6.93333 2.37015 6.84202 2.14971 6.67949 1.98717C6.51696 1.82464 6.29652 1.73333 6.06667 1.73333C5.83681 1.73333 5.61637 1.82464 5.45384 1.98717C5.29131 2.14971 5.2 2.37015 5.2 2.6V8.66667H3.46667V2.6C3.46667 2.25856 3.53392 1.92047 3.66458 1.60502C3.79524 1.28958 3.98676 1.00295 4.22819 0.761522C4.46962 0.52009 4.75624 0.328575 5.07169 0.197913C5.38714 0.067251 5.72523 0 6.06667 0C6.4081 0 6.7462 0.067251 7.06164 0.197913C7.37709 0.328575 7.66371 0.52009 7.90514 0.761522C8.14658 1.00295 8.33809 1.28958 8.46875 1.60502C8.59942 1.92047 8.66667 2.25856 8.66667 2.6V7.8C8.66667 8.94927 8.21012 10.0515 7.39746 10.8641C6.58481 11.6768 5.4826 12.1333 4.33333 12.1333C3.18406 12.1333 2.08186 11.6768 1.2692 10.8641C0.456546 10.0515 0 8.94927 0 7.8Z" fill="#202388"/>
<path fill-rule="evenodd" clip-rule="evenodd" d="M21.6662 0H10.3996V7.8C10.3996 9.40898 9.76041 10.9521 8.62269 12.0898C7.48497 13.2275 5.94189 13.8667 4.33291 13.8667H1.73291V23.4C1.73291 24.0896 2.00684 24.7509 2.49443 25.2385C2.98203 25.7261 3.64335 26 4.33291 26H21.6662C22.3558 26 23.0171 25.7261 23.5047 25.2385C23.9923 24.7509 24.2662 24.0896 24.2662 23.4V2.6C24.2662 1.91044 23.9923 1.24912 23.5047 0.761522C23.0171 0.273928 22.3558 0 21.6662 0ZM19.0662 6.93333H12.1329V8.66667H19.0662V6.93333ZM19.0662 12.1333H12.1329V13.8667H19.0662V12.1333ZM6.93291 17.3333H19.0662V19.0667H6.93291V17.3333Z" fill="#202388"/>
</svg>
