<svg width="24" height="24" viewBox="0 0 24 24" fill="none" xmlns="http://www.w3.org/2000/svg">
<path d="M12 2.5C13.3183 2.5 14.5508 2.75025 15.7021 3.24707C16.8631 3.74806 17.8683 4.42493 18.7217 5.27832C19.5751 6.13171 20.2519 7.13694 20.7529 8.29785C21.2498 9.44922 21.5 10.6817 21.5 12C21.5 13.3183 21.2498 14.5508 20.7529 15.7021C20.2519 16.8631 19.5751 17.8683 18.7217 18.7217C17.8683 19.5751 16.8631 20.2519 15.7021 20.7529C14.5508 21.2498 13.3183 21.5 12 21.5C10.6817 21.5 9.44922 21.2498 8.29785 20.7529C7.13694 20.2519 6.13171 19.5751 5.27832 18.7217C4.42493 17.8683 3.74806 16.8631 3.24707 15.7021C2.75025 14.5508 2.5 13.3183 2.5 12C2.5 10.6817 2.75025 9.44922 3.24707 8.29785C3.74806 7.13694 4.42493 6.13171 5.27832 5.27832C6.13171 4.42493 7.13694 3.74806 8.29785 3.24707C9.44922 2.75025 10.6817 2.5 12 2.5ZM12 3.5C9.63686 3.5 7.61741 4.32595 5.97168 5.97168C4.32595 7.61741 3.5 9.63686 3.5 12C3.5 14.3631 4.32595 16.3826 5.97168 18.0283C7.61741 19.6741 9.63686 20.5 12 20.5C14.3631 20.5 16.3826 19.6741 18.0283 18.0283C19.6741 16.3826 20.5 14.3631 20.5 12C20.5 9.63686 19.6741 7.61741 18.0283 5.97168C16.3826 4.32595 14.3631 3.5 12 3.5ZM12.5 11.5V16.5H11.5V11.5H12.5ZM12 7.5C12.1574 7.5 12.2661 7.54735 12.3594 7.64062C12.4526 7.7339 12.5 7.84258 12.5 8C12.5 8.15742 12.4526 8.2661 12.3594 8.35938C12.2661 8.45265 12.1574 8.5 12 8.5C11.8426 8.5 11.7339 8.45265 11.6406 8.35938C11.5474 8.2661 11.5 8.15742 11.5 8C11.5 7.84258 11.5474 7.7339 11.6406 7.64062C11.7339 7.54735 11.8426 7.5 12 7.5Z" fill="#0052CC" stroke="#0052CC"/>
</svg>
