<svg width="20" height="20" viewBox="0 0 20 20" fill="none" xmlns="http://www.w3.org/2000/svg">
<path d="M13.25 3C12.9 3 12.6042 2.87917 12.3625 2.6375C12.1208 2.39583 12 2.1 12 1.75C12 1.4 12.1208 1.10417 12.3625 0.8625C12.6042 0.620833 12.9 0.5 13.25 0.5C13.6 0.5 13.8958 0.620833 14.1375 0.8625C14.3792 1.10417 14.5 1.4 14.5 1.75C14.5 2.1 14.3792 2.39583 14.1375 2.6375C13.8958 2.87917 13.6 3 13.25 3ZM13.25 19.5C12.9 19.5 12.6042 19.3792 12.3625 19.1375C12.1208 18.8958 12 18.6 12 18.25C12 17.9 12.1208 17.6042 12.3625 17.3625C12.6042 17.1208 12.9 17 13.25 17C13.6 17 13.8958 17.1208 14.1375 17.3625C14.3792 17.6042 14.5 17.9 14.5 18.25C14.5 18.6 14.3792 18.8958 14.1375 19.1375C13.8958 19.3792 13.6 19.5 13.25 19.5ZM17.25 6.5C16.9 6.5 16.6042 6.37917 16.3625 6.1375C16.1208 5.89583 16 5.6 16 5.25C16 4.9 16.1208 4.60417 16.3625 4.3625C16.6042 4.12083 16.9 4 17.25 4C17.6 4 17.8958 4.12083 18.1375 4.3625C18.3792 4.60417 18.5 4.9 18.5 5.25C18.5 5.6 18.3792 5.89583 18.1375 6.1375C17.8958 6.37917 17.6 6.5 17.25 6.5ZM17.25 16C16.9 16 16.6042 15.8792 16.3625 15.6375C16.1208 15.3958 16 15.1 16 14.75C16 14.4 16.1208 14.1042 16.3625 13.8625C16.6042 13.6208 16.9 13.5 17.25 13.5C17.6 13.5 17.8958 13.6208 18.1375 13.8625C18.3792 14.1042 18.5 14.4 18.5 14.75C18.5 15.1 18.3792 15.3958 18.1375 15.6375C17.8958 15.8792 17.6 16 17.25 16ZM18.75 11.25C18.4 11.25 18.1042 11.1292 17.8625 10.8875C17.6208 10.6458 17.5 10.35 17.5 10C17.5 9.65 17.6208 9.35417 17.8625 9.1125C18.1042 8.87083 18.4 8.75 18.75 8.75C19.1 8.75 19.3958 8.87083 19.6375 9.1125C19.8792 9.35417 20 9.65 20 10C20 10.35 19.8792 10.6458 19.6375 10.8875C19.3958 11.1292 19.1 11.25 18.75 11.25ZM10 20C8.61667 20 7.31667 19.7375 6.1 19.2125C4.88333 18.6875 3.825 17.975 2.925 17.075C2.025 16.175 1.3125 15.1167 0.7875 13.9C0.2625 12.6833 0 11.3833 0 10C0 8.61667 0.2625 7.31667 0.7875 6.1C1.3125 4.88333 2.025 3.825 2.925 2.925C3.825 2.025 4.88333 1.3125 6.1 0.7875C7.31667 0.2625 8.61667 0 10 0V2C7.76667 2 5.875 2.775 4.325 4.325C2.775 5.875 2 7.76667 2 10C2 12.2333 2.775 14.125 4.325 15.675C5.875 17.225 7.76667 18 10 18V20ZM13.3 14.7L9 10.4V5H11V9.6L14.7 13.3L13.3 14.7Z" fill="#0052CC"/>
</svg>
