<svg width="40" height="40" viewBox="0 0 40 40" fill="none" xmlns="http://www.w3.org/2000/svg">
<g clip-path="url(#clip0_31512_24259)">
<path d="M29.167 18.3333V12.1667C29.167 8.39501 29.167 6.51001 27.8753 5.33834C26.582 4.16667 24.5037 4.16667 20.342 4.16667H12.992C8.83033 4.16667 6.75199 4.16667 5.45866 5.33834C4.16533 6.51001 4.16699 8.39501 4.16699 12.1667V22.8333C4.16699 26.605 4.16699 28.49 5.45866 29.6617C6.75199 30.8333 8.83033 30.8333 12.992 30.8333H18.3337M9.16699 10.8333H24.167M9.16699 17.5H10.8337M15.8337 17.5H17.5003M22.5003 17.5H24.167M9.16699 24.1667H10.8337M15.8337 24.1667H17.5003" stroke="#0052CC" stroke-width="3" stroke-linecap="round" stroke-linejoin="round"/>
<path d="M29.1667 35.8333C32.8486 35.8333 35.8333 32.8486 35.8333 29.1667C35.8333 25.4848 32.8486 22.5 29.1667 22.5C25.4848 22.5 22.5 25.4848 22.5 29.1667C22.5 32.8486 25.4848 35.8333 29.1667 35.8333Z" stroke="#0052CC" stroke-width="1.5" stroke-linecap="round" stroke-linejoin="round"/>
<path d="M30.8337 30L29.167 29.1667V26.6667" stroke="#0052CC" stroke-width="1.5" stroke-linecap="round" stroke-linejoin="round"/>
</g>
<defs>
<clipPath id="clip0_31512_24259">
<rect width="40" height="40" fill="white"/>
</clipPath>
</defs>
</svg>
