<svg width="29" height="34" viewBox="0 0 29 34" fill="none" xmlns="http://www.w3.org/2000/svg">
<path fill-rule="evenodd" clip-rule="evenodd" d="M19.31 0C20.194 0.000188791 21.0417 0.351502 21.6667 0.976667L27.3567 6.66667C27.9818 7.29164 28.3331 8.13935 28.3333 9.02333V23.3333C28.3333 24.2174 27.9821 25.0652 27.357 25.6904C26.7319 26.3155 25.8841 26.6667 25 26.6667H21.6667V30C21.6667 30.8841 21.3155 31.7319 20.6904 32.357C20.0652 32.9821 19.2174 33.3333 18.3333 33.3333H3.33333C2.44928 33.3333 1.60143 32.9821 0.976311 32.357C0.351189 31.7319 0 30.8841 0 30V10C0 9.11594 0.351189 8.2681 0.976311 7.64298C1.60143 7.01786 2.44928 6.66667 3.33333 6.66667H6.66667V3.33333C6.66667 2.44928 7.01786 1.60143 7.64298 0.976311C8.2681 0.351189 9.11594 0 10 0H19.31ZM6.66667 10H3.33333V30H18.3333V26.6667H10C9.11594 26.6667 8.2681 26.3155 7.64298 25.6904C7.01786 25.0652 6.66667 24.2174 6.66667 23.3333V10ZM16.6667 3.33333H10V23.3333H25V11.6667H19.1667C18.5452 11.6666 17.946 11.4351 17.486 11.0173C17.0259 10.5995 16.738 10.0253 16.6783 9.40667L16.6667 9.16667V3.33333ZM20 4.02333V8.33333H24.31L20 4.02333Z" fill="#0052CC"/>
</svg>
