<svg width="26" height="25" viewBox="0 0 26 25" fill="none" xmlns="http://www.w3.org/2000/svg">
<path d="M23.7715 18.8097C23.6473 18.8265 23.5202 18.835 23.3932 18.835C22.727 18.835 22.0778 18.6047 21.564 18.2002C19.7292 20.8797 16.6381 22.6407 13.1406 22.6407C11.1308 22.6407 9.25358 22.0565 7.67279 21.051C7.63609 21.0538 7.5994 21.0538 7.5627 21.0538C7.45825 21.0538 7.35099 21.051 7.24372 21.0482C5.92545 21.0257 4.61 20.7758 3.35384 20.3236C5.65446 23.1744 9.18866 25 13.1406 25C17.7729 25 21.8265 22.4919 24.0086 18.7704C23.9324 18.7872 23.8533 18.7984 23.7715 18.8097ZM13.1406 0C6.21338 0 0.578979 5.60611 0.578979 12.4986C0.578979 13.5575 0.711653 14.5854 0.962886 15.5685C1.11814 16.178 1.31574 16.7678 1.55851 17.3379C1.71376 17.7059 1.88596 18.0654 2.07509 18.4137H2.07791C3.28609 19.0765 4.61847 19.5399 6.00731 19.7337C5.60364 19.3405 5.23385 18.9136 4.90076 18.4586C4.57048 18.0064 4.27691 17.5261 4.02285 17.0234C3.3369 15.6612 2.95017 14.122 2.95017 12.4986C2.95017 6.90653 7.52318 2.35929 13.1406 2.35929C14.1794 2.35929 15.1844 2.51376 16.13 2.80586C16.2938 2.75812 16.4575 2.72441 16.6269 2.70194C16.7652 2.68509 16.9091 2.67386 17.0531 2.67386C17.8915 2.67386 18.7016 2.97719 19.3368 3.5305C19.3904 3.57544 19.4469 3.626 19.4977 3.67655C19.9945 3.26368 20.4546 2.92945 20.8978 2.67386C18.7609 0.999888 16.0651 0 13.1406 0Z" fill="#717171"/>
<path d="M25.6148 14.0009C25.6035 13.9756 25.5922 13.9504 25.5809 13.9251L25.1406 12.9617C25.4313 12.5573 25.564 12.0573 25.5555 11.5489C25.5894 10.9507 25.3212 10.4199 24.8724 10.0238C24.5195 9.72893 24.0961 9.52951 23.6614 9.47334C24.0368 8.99305 24.449 8.4257 24.7962 7.82746C25.6091 6.41188 26.0552 4.80532 24.8131 3.71556C24.3276 3.26898 23.6529 3.10046 22.9528 3.19034C22.6113 3.23527 22.2584 3.34481 21.8802 3.52738C21.293 3.81105 20.6494 4.27168 19.9126 4.9261C19.6925 5.1227 19.461 5.33897 19.221 5.57209C19.1081 5.13394 18.8851 4.73791 18.5323 4.443C18.0524 4.02451 17.4003 3.8251 16.7821 3.90374C16.3361 3.96272 15.907 4.15933 15.5739 4.45705L14.5634 4.13686C14.2387 4.03575 13.8915 3.99643 13.5556 4.03856C12.9967 4.11158 12.4886 4.3756 12.1159 4.79128L11.574 5.42885C11.2267 5.81364 11.063 6.31639 11.1308 6.81914C11.1957 7.31909 11.509 7.76005 11.9127 8.01845L15.2832 10.0744C14.8936 10.58 14.5323 11.0799 14.1992 11.5742L12.6043 11.358C12.4293 11.3243 12.2317 11.3214 12.0623 11.3411C11.5881 11.4029 11.1336 11.6332 10.8118 12.0152L10.538 12.3045C10.1908 12.6893 10.0355 13.2482 10.1597 13.7706C10.2839 14.2902 10.6311 14.7565 11.1421 14.9727L12.8075 15.7198C11.5401 17.3573 9.48223 18.3881 7.28606 18.5594C6.49566 18.624 5.69397 18.5875 4.90075 18.4583C3.75185 18.2729 2.61989 17.8937 1.5585 17.3376C1.16048 17.1326 0.773751 16.8995 0.401135 16.6467C0.307981 16.5737 0.166839 16.5933 0.0652164 16.6916C-0.0335832 16.7899 -0.0138233 16.9556 0.0821535 17.0287C0.691888 17.5511 1.3609 18.0173 2.07508 18.4133H2.07791C3.28608 19.0762 4.61847 19.5396 6.00731 19.7334C6.42791 19.7924 6.85134 19.8261 7.28041 19.8345C9.76734 19.9104 12.4377 18.9975 14.2952 17.0848L15.2324 18.6071C15.5937 19.1829 16.2317 19.4975 16.9035 19.4104C17.3241 19.3571 17.6967 19.1661 17.9705 18.8487L18.2161 18.5622C18.6621 18.051 18.8258 17.3489 18.6537 16.6916L18.2274 15.1609C18.6593 14.7649 19.1166 14.338 19.5711 13.911L22.0524 16.9865C22.0975 17.0427 22.1483 17.0961 22.1991 17.1438C22.5718 17.5033 23.0968 17.6747 23.6134 17.6073C24.034 17.5539 24.4066 17.3629 24.6804 17.0455L24.9655 16.7253L25.2252 16.436C25.8322 15.7788 25.9676 14.8379 25.6148 14.0009ZM24.1836 15.4362L23.6416 16.0737C23.6162 16.1046 23.5654 16.1411 23.5372 16.1439C23.4807 16.1524 23.4214 16.1299 23.3565 16.0821L22.8795 15.4867L19.7856 11.6164C18.7073 12.7483 17.564 13.8015 16.593 14.6357L17.2563 17.0989C17.3072 17.2618 17.2733 17.4359 17.1463 17.5679L16.8724 17.8572C16.847 17.8881 16.7962 17.9246 16.768 17.9274C16.7115 17.9359 16.624 17.9162 16.5845 17.8376L14.8428 14.9755L11.7857 13.588C11.6671 13.5459 11.6474 13.3802 11.7236 13.3128L11.9692 13.0263C12.0426 12.9308 12.1498 12.8887 12.291 12.8718C12.3474 12.8634 12.3756 12.8606 12.4349 12.8803L14.9585 13.2342C15.6699 12.15 16.5902 10.9254 17.5725 9.72331L12.737 6.69556C12.641 6.62253 12.6269 6.51019 12.7003 6.4175L13.2423 5.77993C13.3636 5.62265 13.5528 5.5412 13.7221 5.51873C13.8322 5.50468 13.948 5.51873 14.0665 5.56086L16.0284 6.18438L16.5224 5.6086C16.6466 5.4794 16.8075 5.40357 16.9487 5.38391C17.1434 5.35863 17.3523 5.41761 17.5132 5.56647C17.8012 5.81364 17.8322 6.26302 17.5838 6.54951L17.4878 6.6759L19.5993 7.36402C20.1102 6.82757 20.5704 6.3838 20.9797 6.02429C21.8378 5.26314 22.4871 4.8615 22.9783 4.7323C23.0488 4.71264 23.1138 4.69859 23.1759 4.69017C23.4581 4.65646 23.6642 4.71264 23.8251 4.8615C24.0961 5.09181 24.1695 5.49345 23.9465 6.12821C23.7432 6.7096 23.2888 7.48199 22.504 8.49592C22.3064 8.75151 22.0891 9.02395 21.8463 9.31044L22.7919 11.313L22.8879 11.1866C22.9895 11.0827 23.094 11.0153 23.2182 10.9816C23.2492 10.9732 23.2803 10.9676 23.3142 10.9619C23.5089 10.9367 23.7178 10.9956 23.8787 11.1445C24.1441 11.4197 24.1723 11.8691 23.9267 12.1556L23.4327 12.7314L24.2993 14.5739C24.4236 14.8688 24.3784 15.1862 24.1836 15.4362Z" fill="#717171"/>
</svg>
