<svg width="40" height="40" viewBox="0 0 40 40" fill="none" xmlns="http://www.w3.org/2000/svg">
<g clip-path="url(#clip0_31512_32204)">
<path d="M22.5 16.25C22.5 15.9185 22.3683 15.6005 22.1339 15.3661C21.8995 15.1317 21.5815 15 21.25 15H11.25C10.9185 15 10.6005 15.1317 10.3661 15.3661C10.1317 15.6005 10 15.9185 10 16.25C10 16.5815 10.1317 16.8995 10.3661 17.1339C10.6005 17.3683 10.9185 17.5 11.25 17.5H21.25C21.5815 17.5 21.8995 17.3683 22.1339 17.1339C22.3683 16.8995 22.5 16.5815 22.5 16.25ZM20.8333 21.25C20.8333 20.9185 20.7016 20.6005 20.4672 20.3661C20.2328 20.1317 19.9149 20 19.5833 20H11.25C10.9185 20 10.6005 20.1317 10.3661 20.3661C10.1317 20.6005 10 20.9185 10 21.25C10 21.5815 10.1317 21.8995 10.3661 22.1339C10.6005 22.3683 10.9185 22.5 11.25 22.5H19.5833C19.9149 22.5 20.2328 22.3683 20.4672 22.1339C20.7016 21.8995 20.8333 21.5815 20.8333 21.25ZM21.25 25C21.5815 25 21.8995 25.1317 22.1339 25.3661C22.3683 25.6005 22.5 25.9185 22.5 26.25C22.5 26.5815 22.3683 26.8995 22.1339 27.1339C21.8995 27.3683 21.5815 27.5 21.25 27.5H11.25C10.9185 27.5 10.6005 27.3683 10.3661 27.1339C10.1317 26.8995 10 26.5815 10 26.25C10 25.9185 10.1317 25.6005 10.3661 25.3661C10.6005 25.1317 10.9185 25 11.25 25H21.25Z" fill="#0052CC"/>
<path fill-rule="evenodd" clip-rule="evenodd" d="M10 36.25H31.6667C32.8822 36.25 34.048 35.7671 34.9076 34.9076C35.7671 34.048 36.25 32.8822 36.25 31.6667V22.5C36.25 22.1685 36.1183 21.8505 35.8839 21.6161C35.6495 21.3817 35.3315 21.25 35 21.25H29.5833V8.23834C29.5833 5.86667 26.9017 4.48667 24.9717 5.86501L24.68 6.07334C24.0413 6.52672 23.2772 6.76972 22.4939 6.76852C21.7107 6.76733 20.9473 6.522 20.31 6.06667C19.246 5.30945 17.9726 4.90256 16.6667 4.90256C15.3608 4.90256 14.0873 5.30945 13.0233 6.06667C12.386 6.522 11.6226 6.76733 10.8394 6.76852C10.0562 6.76972 9.29202 6.52672 8.65333 6.07334L8.36167 5.86501C6.43167 4.48667 3.75 5.86501 3.75 8.23834V30C3.75 31.6576 4.40848 33.2473 5.58058 34.4194C6.75268 35.5915 8.3424 36.25 10 36.25ZM14.4767 8.10001C15.1166 7.64575 15.8819 7.40172 16.6667 7.40172C17.4514 7.40172 18.2168 7.64575 18.8567 8.10001C19.9178 8.85854 21.1893 9.26703 22.4937 9.26852C23.7981 9.27002 25.0704 8.86444 26.1333 8.10834L26.425 7.9C26.4872 7.85569 26.5605 7.82934 26.6367 7.82384C26.7129 7.81834 26.7892 7.83391 26.8571 7.86884C26.9251 7.90376 26.9821 7.95671 27.022 8.02187C27.0619 8.08704 27.0831 8.16193 27.0833 8.23834V31.6667C27.0833 32.4167 27.2633 33.125 27.5833 33.75H10C9.00544 33.75 8.05161 33.3549 7.34835 32.6517C6.64509 31.9484 6.25 30.9946 6.25 30V8.23834C6.2502 8.16193 6.27141 8.08704 6.3113 8.02187C6.3512 7.95671 6.40825 7.90376 6.47621 7.86884C6.54417 7.83391 6.62043 7.81834 6.69664 7.82384C6.77285 7.82934 6.84609 7.85569 6.90833 7.9L7.2 8.10834C8.26291 8.86444 9.53527 9.27002 10.8397 9.26852C12.1441 9.26703 13.4155 8.85854 14.4767 8.10001ZM29.5833 31.6667V23.75H33.75V31.6667C33.75 32.2192 33.5305 32.7491 33.1398 33.1398C32.7491 33.5305 32.2192 33.75 31.6667 33.75C31.1141 33.75 30.5842 33.5305 30.1935 33.1398C29.8028 32.7491 29.5833 32.2192 29.5833 31.6667Z" fill="#0052CC"/>
</g>
<defs>
<clipPath id="clip0_31512_32204">
<rect width="40" height="40" fill="white"/>
</clipPath>
</defs>
</svg>
