<svg width="20" height="20" viewBox="0 0 20 20" fill="none" xmlns="http://www.w3.org/2000/svg">
<g clip-path="url(#clip0_24829_25839)">
<path d="M11.1454 18.4131C11.7167 18.3389 12.1681 18.8867 11.9745 19.4193C11.8733 19.6894 11.6382 19.8789 11.3466 19.9168C10.6755 20.0015 9.99747 20.0216 9.32231 19.977C6.83147 19.8124 4.59044 18.7539 2.93028 17.1256C1.11992 15.3499 0 12.8967 0 10.1876C0 7.47803 1.11992 5.02522 2.93028 3.24959C4.74064 1.47397 7.24143 0.375537 10.004 0.375537C10.9618 0.375537 11.8952 0.510741 12.7849 0.762782C13.5147 0.969336 14.218 1.25739 14.8809 1.62129L14.6837 1.11486C14.5191 0.690491 14.7363 0.215715 15.1685 0.0539395C15.6012 -0.107445 16.0853 0.10552 16.2502 0.529888L17.0837 2.66892C17.1151 2.7503 17.1334 2.836 17.1378 2.92292C17.2032 3.32149 16.9598 3.71656 16.555 3.83691L14.3227 4.50668C13.8809 4.63797 13.4143 4.39336 13.2805 3.96039C13.1466 3.52743 13.396 3.06945 13.8375 2.93816L14.0211 2.88306C13.492 2.60218 12.9337 2.3779 12.3558 2.21407C11.6159 2.00463 10.8271 1.89209 10.004 1.89209C7.66853 1.89209 5.55378 2.82054 4.02351 4.32185C2.49283 5.82276 1.54622 7.89654 1.54622 10.1876C1.54622 12.4782 2.49283 14.552 4.02351 16.0533C5.41036 17.4136 7.27689 18.3037 9.35299 18.4585C9.94661 18.5026 10.5574 18.4882 11.1454 18.4131ZM8.47251 6.19672C8.47251 5.77822 8.81873 5.43864 9.24582 5.43864C9.67251 5.43864 10.0187 5.77822 10.0187 6.19672V10.8124L13.2398 12.2012C13.6303 12.3696 13.8072 12.8166 13.6355 13.1996C13.4637 13.5821 13.008 13.756 12.6175 13.5876L8.97371 12.0167C8.68088 11.9085 8.47251 11.6314 8.47251 11.3067V6.19672ZM13.839 17.6027C13.2167 17.9149 13.2996 18.8101 13.9701 19.0067C14.1641 19.0606 14.3574 19.0442 14.5382 18.9555C15.0371 18.7097 15.5159 18.4202 15.9649 18.095C16.1841 17.9348 16.298 17.6824 16.2745 17.4155C16.2147 16.8259 15.5303 16.5269 15.0438 16.877C14.664 17.1521 14.261 17.3949 13.839 17.6027ZM16.9928 14.8849C16.6406 15.4 17.0363 16.0924 17.6689 16.065C17.9163 16.0521 18.1378 15.9333 18.2765 15.7302C18.5896 15.2745 18.8602 14.7974 19.092 14.2972C19.3155 13.8033 18.9673 13.25 18.4163 13.2269C18.1004 13.2168 17.8143 13.3899 17.6829 13.6724C17.4865 14.0964 17.2582 14.4989 16.9928 14.8849ZM18.4135 10.9961C18.3857 11.2938 18.5331 11.5728 18.7956 11.7241C19.288 11.9984 19.8952 11.6912 19.953 11.1391C20.006 10.5912 20.0143 10.0489 19.9761 9.49984C19.957 9.23607 19.8016 9.00357 19.5625 8.88048C19.0263 8.60773 18.3908 9.01568 18.4335 9.60613C18.4661 10.0719 18.4586 10.5311 18.4135 10.9961ZM17.7729 6.91729C17.9462 7.30922 18.4112 7.48546 18.8068 7.30649C19.188 7.13455 19.359 6.69651 19.1936 6.31825C18.9745 5.81456 18.7108 5.3304 18.4092 4.8693C18.0303 4.29801 17.1386 4.46447 17.0008 5.13307C16.9629 5.32962 16.9988 5.52149 17.1092 5.69069C17.3649 6.08223 17.5873 6.4894 17.7729 6.91729Z" fill="#F57F17"/>
</g>
<defs>
<clipPath id="clip0_24829_25839">
<rect width="20" height="20" fill="white"/>
</clipPath>
</defs>
</svg>
