<svg width="65" height="65" viewBox="0 0 65 65" fill="none" xmlns="http://www.w3.org/2000/svg">
<path d="M65.0092 32.5053C65.0109 36.9072 64.1175 41.2635 62.3833 45.3094C60.6491 49.3553 58.1102 53.0064 54.9211 56.0406H10.236C9.38761 55.2962 8.58568 54.5005 7.83468 53.658L7.6159 53.3911C5.74823 51.1686 -0.302992 43.2844 0.0118423 32.4973C0.441405 17.5587 13.0001 0 32.5065 0C36.775 -1.43818e-08 41.0018 0.840795 44.9454 2.47437C48.8889 4.10795 52.4721 6.50232 55.4903 9.52075C58.5085 12.5392 60.9026 16.1226 62.5358 20.0663C64.1691 24.01 65.0095 28.2368 65.0092 32.5053Z" fill="#84D0F7"/>
<path d="M32.4501 15.2827C35.7375 15.2827 38.4026 12.6177 38.4026 9.33019C38.4026 6.04271 35.7375 3.37769 32.4501 3.37769C29.1626 3.37769 26.4976 6.04271 26.4976 9.33019C26.4976 12.6177 29.1626 15.2827 32.4501 15.2827Z" fill="#2D2D2D"/>
<path opacity="0.2" d="M32.4501 15.2827C35.7375 15.2827 38.4026 12.6177 38.4026 9.33019C38.4026 6.04271 35.7375 3.37769 32.4501 3.37769C29.1626 3.37769 26.4976 6.04271 26.4976 9.33019C26.4976 12.6177 29.1626 15.2827 32.4501 15.2827Z" fill="#050505"/>
<path d="M57.3945 53.3963C56.621 54.3222 55.7952 55.2033 54.9212 56.035C48.8789 61.7904 40.8539 65.0004 32.5093 64.9998C25.5882 64.9998 19.8092 62.5985 15.5776 59.9918C13.687 58.8309 11.9014 57.5069 10.2414 56.035C9.39121 55.2916 8.58917 54.4949 7.8401 53.6498C7.77607 53.5777 7.6987 53.4923 7.61865 53.3829C9.61553 51.3822 11.8865 49.6754 14.3636 48.3136C16.7003 47.0207 19.1773 45.9993 21.7462 45.2693C25.3214 48.4283 28.8922 51.5855 32.4586 54.741C36.0694 51.582 39.6757 48.4247 43.2777 45.2693C43.3524 45.2933 43.4298 45.312 43.5045 45.3333C43.5287 45.3457 43.5549 45.3538 43.5818 45.3573C46.0357 46.0808 48.4051 47.0647 50.6496 48.2922C53.1252 49.6703 55.3956 51.3883 57.3945 53.3963Z" fill="#AA392D"/>
<path d="M43.2669 45.2962C39.6632 48.4552 36.0604 51.6125 32.4585 54.7679C28.8921 51.6089 25.3213 48.4517 21.7461 45.2962C22.2822 45.0835 22.8422 44.9366 23.4136 44.8586C26.4233 47.4378 29.4329 50.0169 32.4425 52.5961C35.4894 50.0116 38.5373 47.4325 41.586 44.8586C42.1611 44.9402 42.725 45.087 43.2669 45.2962Z" fill="#7C211A"/>
<path d="M41.5864 44.8585C38.5395 47.4377 35.4916 50.0168 32.4429 52.596C29.4297 50.0168 26.4201 47.4377 23.4141 44.8585C23.8009 44.7651 24.2145 44.6771 24.6147 44.5917C25.0149 44.5063 25.3644 44.4449 25.7273 44.3862C25.9076 43.9376 26.0556 43.4766 26.1702 43.0068C26.2289 42.74 26.2769 42.5026 26.3169 42.2678C26.6848 42.568 27.0716 42.8443 27.4749 43.0949C27.8612 43.3343 28.2602 43.5525 28.6702 43.7486C29.8072 44.2652 31.0325 44.5596 32.2801 44.6157C33.6653 44.5844 35.0285 44.2636 36.2823 43.6739C36.7333 43.4466 37.1723 43.1964 37.5976 42.9241C38.0085 42.6573 38.3474 42.3905 38.6035 42.1877C38.6809 42.5319 38.7743 42.8948 38.8917 43.2763C39.009 43.6579 39.1318 44.0421 39.2652 44.3862C39.5827 44.4396 39.9029 44.4983 40.2364 44.5677C40.7042 44.6548 41.1542 44.7518 41.5864 44.8585Z" fill="#EAB198"/>
<path opacity="0.2" d="M43.5708 45.3921C43.3467 45.6429 43.1199 45.8911 42.8851 46.1232C42.365 46.6503 41.8058 47.1373 41.2122 47.58C40.433 48.1639 39.582 48.6454 38.6802 49.0127C38.1115 49.2489 37.5208 49.4276 36.9166 49.5464C36.3848 49.6487 35.8438 49.6952 35.3024 49.6851C34.2397 49.6657 33.1899 49.4476 32.2074 49.0421L32.0313 48.9727C31.2493 48.6364 30.5081 48.2121 29.8221 47.708C28.5286 46.7437 27.3881 45.5896 26.439 44.2849C26.2869 44.0821 26.1402 43.8713 25.9961 43.6525C26.0228 43.5592 26.0521 43.4658 26.0761 43.3671C26.1774 43.011 26.2576 42.6493 26.3163 42.2838C26.4737 42.4146 26.6338 42.5373 26.7965 42.6547C27.2302 42.9711 27.6858 43.2565 28.1599 43.5085C28.2053 43.5298 28.2533 43.5592 28.2987 43.5832L28.4694 43.6712L28.6695 43.7646L28.7842 43.818L28.8856 43.8633L29.0084 43.9167L29.1258 43.9647C29.1442 43.9746 29.164 43.9817 29.1845 43.9861C29.2292 44.009 29.2756 44.0286 29.3232 44.0448L29.5046 44.1115L29.6994 44.1755L29.7394 44.1915L29.8808 44.2342C29.9449 44.2582 30.0142 44.2795 30.0836 44.2982C30.1163 44.3034 30.1484 44.3114 30.1797 44.3222L30.3664 44.3729C30.7639 44.4757 31.169 44.5462 31.5777 44.5837C31.6199 44.5925 31.6628 44.597 31.7058 44.597C31.7333 44.5997 31.761 44.5997 31.7885 44.597C31.8472 44.597 31.8979 44.597 31.9566 44.597C32.0153 44.597 32.05 44.597 32.1034 44.6104H32.4182C33.2997 44.6056 34.175 44.4615 35.0116 44.1835C35.0169 44.1845 35.0223 44.1845 35.0276 44.1835C35.0622 44.1744 35.096 44.1628 35.129 44.1488C35.3024 44.0981 35.4732 44.0261 35.6492 43.962L35.6946 43.938C35.772 43.9087 35.8413 43.874 35.9187 43.8446L35.9774 43.8206C36.7553 43.4699 37.4926 43.035 38.1759 42.5239L38.6082 42.1904C38.6909 42.5533 38.7896 42.9455 38.9123 43.3537C39.0244 43.7219 39.1471 44.0688 39.2698 44.3889L39.5633 44.4423L39.8542 44.4957L40.1423 44.5464C40.2117 44.565 40.2837 44.5757 40.3584 44.5944C40.4061 44.6016 40.4533 44.6114 40.4998 44.6237C40.8627 44.6984 41.2255 44.7758 41.5804 44.8639C42.1487 44.9973 42.7037 45.144 43.2613 45.3014L43.5708 45.3921Z" fill="black"/>
<path d="M47.9868 30.3842C47.9441 31.7689 47.061 33.1697 46.0711 33.6846C45.9383 33.7549 45.7977 33.8096 45.6522 33.8474H45.6202C45.4411 33.8912 45.2546 33.8967 45.0732 33.8634C44.8809 33.8248 44.699 33.7456 44.5396 33.6313L44.4649 33.5752C44.3556 33.4868 44.2555 33.3876 44.1661 33.2791C43.4537 32.42 43.1629 30.8058 43.6325 29.5197C43.8254 29.0207 44.1187 28.5667 44.4943 28.1857C44.8114 27.8451 45.2214 27.6049 45.6736 27.4947C45.8822 27.452 46.0973 27.452 46.3059 27.4947C47.4799 27.7188 48.0215 29.2263 47.9868 30.3842Z" fill="#EAB198"/>
<path opacity="0.3" d="M47.9867 30.3842C47.9413 31.769 47.0582 33.1697 46.0683 33.69C45.9353 33.7565 45.7959 33.8093 45.6521 33.8474H45.6174C45.4423 33.8869 45.2613 33.8932 45.0838 33.8661C44.8915 33.8261 44.7097 33.7461 44.5502 33.6313L44.4755 33.5726C44.3656 33.4859 44.2654 33.3875 44.1767 33.2791C43.4616 32.42 43.1708 30.8058 43.643 29.5171C43.8343 29.0179 44.1268 28.5637 44.5022 28.1831C44.7412 27.9362 45.0257 27.7378 45.3399 27.5988C45.4506 27.5512 45.566 27.5154 45.6841 27.492C45.8927 27.4493 46.1079 27.4493 46.3165 27.492C46.3482 27.4975 46.3794 27.5056 46.4099 27.5161C47.5064 27.7989 48.0214 29.261 47.9867 30.3842Z" fill="black"/>
<path d="M20.8309 33.2845C20.722 33.4174 20.5964 33.5357 20.4574 33.6367C20.2975 33.7508 20.1159 33.8307 19.9237 33.8715C19.7464 33.9007 19.565 33.8943 19.3901 33.8528H19.3581C19.2127 33.8149 19.0721 33.7603 18.9392 33.69C17.9494 33.1751 17.0716 31.7743 17.0235 30.3896C16.9889 29.2316 17.5305 27.7215 18.7071 27.4867C19.3768 27.3533 20.0145 27.6761 20.5187 28.1831C20.8943 28.5641 21.1877 29.0181 21.3805 29.5171C21.8368 30.8111 21.5433 32.4253 20.8309 33.2845Z" fill="#EAB198"/>
<path d="M45.6709 27.4866C45.6709 27.5933 45.6709 27.7027 45.6522 27.8147C45.5249 29.7824 45.1216 31.7224 44.4543 33.5778C43.2136 37.0703 41.1245 40.1653 38.6138 42.1851L38.1816 42.5186C37.4982 43.0297 36.761 43.4645 35.9831 43.8153L35.9244 43.8393C35.847 43.8686 35.7776 43.9033 35.7002 43.9327L35.6549 43.9567C35.4788 44.0207 35.308 44.0928 35.1346 44.1434C35.1017 44.1574 35.0678 44.169 35.0332 44.1781C35.0279 44.1791 35.0225 44.1791 35.0172 44.1781C34.1806 44.4561 33.3054 44.6002 32.4238 44.605H32.109C32.0556 44.605 32.0103 44.605 31.9623 44.5917C31.9142 44.5783 31.8529 44.5917 31.7942 44.5917C31.7667 44.5943 31.739 44.5943 31.7115 44.5917C31.6684 44.5916 31.6255 44.5872 31.5834 44.5783C31.1746 44.5408 30.7695 44.4703 30.3721 44.3676L30.1853 44.3169C30.1541 44.306 30.1219 44.298 30.0893 44.2929C30.0199 44.2742 29.9505 44.2528 29.8865 44.2288L29.7451 44.1861L29.7051 44.1701L29.5103 44.1061L29.3289 44.0394C29.2812 44.0232 29.2349 44.0036 29.1901 43.9807C29.1696 43.9764 29.1499 43.9692 29.1314 43.9594L29.014 43.9113L28.8913 43.858L28.7899 43.8126L28.6752 43.7592L28.4751 43.6659L28.3043 43.5778C28.2589 43.5538 28.2109 43.5244 28.1656 43.5031C27.6915 43.2511 27.2359 42.9658 26.8022 42.6493C26.6394 42.5319 26.4793 42.4092 26.3219 42.2785C25.9051 41.9488 25.5103 41.5923 25.14 41.2112C24.7486 40.832 24.3798 40.4302 24.0354 40.0079C22.4238 38.0214 21.1903 35.756 20.3961 33.3243C19.8714 31.7432 19.532 30.1065 19.3849 28.4471C19.3609 28.1803 19.3449 27.8974 19.3342 27.6226C19.2838 26.6543 19.3124 25.6835 19.4196 24.7198C19.4623 24.3275 19.521 23.9433 19.5903 23.5565C19.6755 23.0772 19.785 22.6025 19.9185 22.1344C20.2233 20.9793 20.6341 19.8548 21.1458 18.7752C22.2744 16.406 23.9206 14.1755 25.943 12.5906C27.8107 11.1472 29.9905 10.2347 32.4612 10.2294C36.4313 10.2107 39.7211 12.5453 42.021 15.6856C42.9549 16.9628 43.7265 18.351 44.3182 19.8185C44.4703 20.1867 44.6117 20.5549 44.7397 20.9284C45.0322 21.7865 45.2614 22.6649 45.4254 23.5565C45.4895 23.93 45.5482 24.3115 45.5882 24.6904C45.6852 25.6191 45.7128 26.5538 45.6709 27.4866Z" fill="#EAB198"/>
<path opacity="0.2" d="M41.5296 28.3431C40.2089 28.3057 38.1144 27.1904 36.9485 26.4007C33.5253 24.0821 30.8732 19.6718 28.9602 19.5837C28.7554 19.5734 28.5505 19.6033 28.3572 19.6718C27.4928 19.9919 27.1993 21.1232 26.8898 22.2171C26.5082 23.5672 26.2574 24.4396 26.0893 24.9999C26.0707 23.4631 26.0413 21.7982 26.9725 19.3969C27.2526 18.6899 27.5995 17.9642 28.3065 17.7054C28.6454 17.5773 29.7553 17.3078 32.5755 19.9172C33.3186 20.5885 34 21.3252 34.6112 22.1184C36.9084 25.12 36.9325 25.3521 38.0984 26.3873C39.774 27.8841 40.7905 27.8094 41.5296 28.3431Z" fill="black"/>
<path d="M50.0995 43.9966C49.9768 44.3247 47.6422 44.2367 45.6118 42.9613C43.2479 41.4752 41.4816 38.4869 41.3829 35.3679C41.2815 32.0862 43.0905 30.7762 42.0713 28.9859C41.9396 28.7371 41.7579 28.5182 41.5377 28.3429C40.8066 27.8093 39.7901 27.884 38.1225 26.4005C36.9565 25.3626 36.9325 25.1305 34.6353 22.1316C34.024 21.3383 33.3427 20.6016 32.5996 19.9304C29.7714 17.321 28.6615 17.5905 28.3306 17.7185C27.6289 17.9853 27.282 18.7031 26.9966 19.4101C26.0654 21.7927 26.0947 23.4656 26.1134 25.0131C26.1134 26.3258 26.1294 27.5371 25.5264 28.9992C24.2458 32.0995 21.9592 32.1876 21.8311 34.9357C21.7538 36.4805 22.4608 36.8194 22.4208 38.8338C22.4208 39.5115 22.3568 42.0355 20.7772 43.7244C18.1385 46.5446 12.8317 45.392 12.773 44.7916C12.7143 44.1913 17.6743 44.258 18.6428 41.686C19.4272 39.5915 16.5083 38.012 16.9165 34.4368C17.1273 32.6118 17.9597 32.4651 18.6428 30.2132C19.6486 26.8781 18.3039 25.6241 18.5334 22.5424C18.9309 17.1582 23.6028 12.5718 27.789 10.8029C29.0763 10.2445 30.4444 9.895 31.8418 9.76763C37.4128 9.29271 41.6017 12.7025 43.1385 14.1673C44.2618 15.2345 47.0766 17.924 47.5382 21.8434C47.7266 23.6012 47.6366 25.3778 47.2714 27.1075C46.527 31.1577 45.2169 31.6086 44.9421 34.8717C44.8327 36.171 44.622 38.6977 46.0654 40.8215C47.6076 43.1081 50.2276 43.6417 50.0995 43.9966Z" fill="#2D2D2D"/>
</svg>
