<svg width="40" height="40" viewBox="0 0 40 40" fill="none" xmlns="http://www.w3.org/2000/svg">
<path d="M13.3337 30H26.667V26.6667H13.3337V30ZM13.3337 23.3333H26.667V20H13.3337V23.3333ZM10.0003 36.6667C9.08366 36.6667 8.29894 36.3403 7.64616 35.6875C6.99338 35.0347 6.66699 34.25 6.66699 33.3333V6.66666C6.66699 5.74999 6.99338 4.96527 7.64616 4.31249C8.29894 3.65972 9.08366 3.33333 10.0003 3.33333H23.3337L33.3337 13.3333V33.3333C33.3337 34.25 33.0073 35.0347 32.3545 35.6875C31.7017 36.3403 30.917 36.6667 30.0003 36.6667H10.0003ZM21.667 15V6.66666H10.0003V33.3333H30.0003V15H21.667Z" fill="#0052CC"/>
</svg>
