<svg width="54" height="54" viewBox="0 0 54 54" fill="none" xmlns="http://www.w3.org/2000/svg">
<rect width="54" height="54" rx="27" fill="#FF3B30" fill-opacity="0.34"/>
<path d="M23.625 27L25.875 29.25L30.9375 24.1875M21.7505 17.796C22.6548 17.7239 23.5133 17.3683 24.2038 16.7798C25.8151 15.4067 28.1849 15.4067 29.7962 16.7798C30.4867 17.3683 31.3452 17.7239 32.2495 17.796C34.3598 17.9644 36.0356 19.6402 36.204 21.7505C36.2761 22.6548 36.6317 23.5133 37.2202 24.2038C38.5933 25.8151 38.5933 28.1849 37.2202 29.7962C36.6317 30.4867 36.2761 31.3452 36.204 32.2495C36.0356 34.3598 34.3598 36.0356 32.2495 36.204C31.3452 36.2761 30.4867 36.6317 29.7962 37.2202C28.1849 38.5933 25.8151 38.5933 24.2038 37.2202C23.5133 36.6317 22.6548 36.2761 21.7505 36.204C19.6402 36.0356 17.9644 34.3598 17.796 32.2495C17.7239 31.3452 17.3683 30.4867 16.7798 29.7962C15.4067 28.1849 15.4067 25.8151 16.7798 24.2038C17.3683 23.5133 17.7239 22.6548 17.796 21.7505C17.9644 19.6402 19.6402 17.9644 21.7505 17.796Z" stroke="#FF3B30" stroke-width="1.5" stroke-linecap="round" stroke-linejoin="round"/>
</svg>
