<svg width="36" height="33" viewBox="0 0 36 33" fill="none" xmlns="http://www.w3.org/2000/svg">
<path d="M28.75 6.25H29.5833C31.94 6.25 33.1183 6.25 33.85 6.98333C34.5833 7.71333 34.5833 8.89167 34.5833 11.25V22.9167C34.5833 25.2733 34.5833 26.4517 33.85 27.1833C33.1183 27.9167 31.94 27.9167 29.5833 27.9167H28.75M7.08333 6.25H6.25C3.89333 6.25 2.715 6.25 1.98333 6.98333C1.25 7.71333 1.25 8.89167 1.25 11.25V22.9167C1.25 25.2733 1.25 26.4517 1.98333 27.1833C2.71333 27.9167 3.89167 27.9167 6.25 27.9167H7.08333M22.0833 9.58333H13.75M22.0833 16.25H13.75M22.0833 22.9167H13.75M28.75 24.5833V7.91667C28.75 4.77333 28.75 3.20333 27.7733 2.22667C26.7967 1.25 25.2267 1.25 22.0833 1.25H13.75C10.6067 1.25 9.03667 1.25 8.06 2.22667C7.08333 3.20333 7.08333 4.77333 7.08333 7.91667V24.5833C7.08333 27.7267 7.08333 29.2967 8.06 30.2733C9.03667 31.25 10.6067 31.25 13.75 31.25H22.0833C25.2267 31.25 26.7967 31.25 27.7733 30.2733C28.75 29.2967 28.75 27.7267 28.75 24.5833Z" stroke="#0052CC" stroke-width="2.5" stroke-linecap="round" stroke-linejoin="round"/>
</svg>
