<svg width="40" height="40" viewBox="0 0 40 40" fill="none" xmlns="http://www.w3.org/2000/svg">
<path d="M31.5003 35L22.3753 25.875L25.8753 22.375L35.0003 31.5L31.5003 35ZM8.50033 35L5.00033 31.5L16.5003 20L13.667 17.1667L12.5003 18.3333L10.3753 16.2083V19.625L9.20866 20.7917L4.16699 15.75L5.33366 14.5833H8.75033L6.66699 12.5L12.5837 6.58333C13.1392 6.02777 13.7364 5.62499 14.3753 5.37499C15.0142 5.12499 15.667 4.99999 16.3337 4.99999C17.0003 4.99999 17.6531 5.12499 18.292 5.37499C18.9309 5.62499 19.5281 6.02777 20.0837 6.58333L16.2503 10.4167L18.3337 12.5L17.167 13.6667L20.0003 16.5L23.7503 12.75C23.6392 12.4444 23.5489 12.125 23.4795 11.7917C23.41 11.4583 23.3753 11.125 23.3753 10.7917C23.3753 9.15277 23.9378 7.77083 25.0628 6.64583C26.1878 5.52083 27.5698 4.95833 29.2087 4.95833C29.6253 4.95833 30.0212 4.99999 30.3962 5.08333C30.7712 5.16666 31.1531 5.29166 31.542 5.45833L27.417 9.58333L30.417 12.5833L34.542 8.45833C34.7364 8.84722 34.8684 9.22916 34.9378 9.60416C35.0073 9.97916 35.042 10.375 35.042 10.7917C35.042 12.4306 34.4795 13.8125 33.3545 14.9375C32.2295 16.0625 30.8475 16.625 29.2087 16.625C28.8753 16.625 28.542 16.5972 28.2087 16.5417C27.8753 16.4861 27.5559 16.3889 27.2503 16.25L8.50033 35Z" fill="#0052CC"/>
</svg>
