<svg width="24" height="24" viewBox="0 0 24 24" fill="none" xmlns="http://www.w3.org/2000/svg">
<path d="M8.625 12L10.875 14.25L15.9375 9.1875M6.75049 2.79603C7.6548 2.72387 8.5133 2.36826 9.20378 1.77985C10.8151 0.406718 13.1849 0.406718 14.7962 1.77985C15.4867 2.36826 16.3452 2.72387 17.2495 2.79603C19.3598 2.96444 21.0356 4.64019 21.204 6.75049C21.2761 7.6548 21.6317 8.5133 22.2202 9.20378C23.5933 10.8151 23.5933 13.1849 22.2202 14.7962C21.6317 15.4867 21.2761 16.3452 21.204 17.2495C21.0356 19.3598 19.3598 21.0356 17.2495 21.204C16.3452 21.2761 15.4867 21.6317 14.7962 22.2202C13.1849 23.5933 10.8151 23.5933 9.20378 22.2202C8.5133 21.6317 7.6548 21.2761 6.75049 21.204C4.64019 21.0356 2.96444 19.3598 2.79603 17.2495C2.72387 16.3452 2.36826 15.4867 1.77985 14.7962C0.406718 13.1849 0.406718 10.8151 1.77985 9.20378C2.36826 8.5133 2.72387 7.6548 2.79603 6.75049C2.96444 4.64019 4.64019 2.96444 6.75049 2.79603Z" stroke="#0052CC" stroke-width="1.5" stroke-linecap="round" stroke-linejoin="round"/>
</svg>
