<svg width="40" height="40" viewBox="0 0 40 40" fill="none" xmlns="http://www.w3.org/2000/svg">
<path d="M7.63301 14.3444L3.33301 14.0894C6.41467 6.17278 15.263 1.66611 23.888 3.90611C33.0763 6.29444 38.5347 15.4361 36.078 24.3228C34.0463 31.6744 27.238 36.5511 19.7447 36.6661" stroke="#0052CC" stroke-width="2.5" stroke-linecap="round" stroke-linejoin="round"/>
<path d="M19.9997 36.6654C10.833 36.6654 3.33301 28.332 3.33301 18.332" stroke="#0052CC" stroke-width="2.5" stroke-linecap="round" stroke-linejoin="round" stroke-dasharray="0.83 5"/>
<path d="M22.6733 16.2019C22.0867 15.5852 20.6517 14.1402 18.3817 15.1686C16.1133 16.1936 15.7533 19.4952 19.185 19.8469C20.735 20.0052 21.7467 19.6636 22.6733 20.6302C23.6 21.6002 23.7717 24.2936 21.405 25.0202C19.0383 25.7469 17.5033 24.5469 17.0917 24.1719M19.8467 13.3652V14.6819M19.8467 25.2436V26.6986" stroke="#0052CC" stroke-width="2.5" stroke-linecap="round" stroke-linejoin="round"/>
</svg>
