<svg width="20" height="20" viewBox="0 0 20 20" fill="none" xmlns="http://www.w3.org/2000/svg">
<path d="M7.25829 6.42508L9.16662 4.50841V12.5001C9.16662 12.7211 9.25442 12.9331 9.4107 13.0893C9.56698 13.2456 9.77894 13.3334 9.99996 13.3334C10.221 13.3334 10.4329 13.2456 10.5892 13.0893C10.7455 12.9331 10.8333 12.7211 10.8333 12.5001V4.50841L12.7416 6.42508C12.8191 6.50318 12.9113 6.56518 13.0128 6.60749C13.1144 6.64979 13.2233 6.67157 13.3333 6.67157C13.4433 6.67157 13.5522 6.64979 13.6538 6.60749C13.7553 6.56518 13.8475 6.50318 13.925 6.42508C14.0031 6.34761 14.0651 6.25544 14.1074 6.15389C14.1497 6.05234 14.1715 5.94342 14.1715 5.83341C14.1715 5.7234 14.1497 5.61448 14.1074 5.51293C14.0651 5.41138 14.0031 5.31921 13.925 5.24174L10.5916 1.90841C10.5124 1.83254 10.4189 1.77307 10.3166 1.73341C10.1137 1.65006 9.88618 1.65006 9.68329 1.73341C9.581 1.77307 9.48754 1.83254 9.40829 1.90841L6.07496 5.24174C5.99726 5.31944 5.93563 5.41168 5.89358 5.5132C5.85153 5.61472 5.82988 5.72353 5.82988 5.83341C5.82988 5.94329 5.85153 6.0521 5.89358 6.15362C5.93563 6.25514 5.99726 6.34738 6.07496 6.42508C6.15266 6.50277 6.2449 6.56441 6.34642 6.60646C6.44794 6.64851 6.55674 6.67015 6.66663 6.67015C6.77651 6.67015 6.88531 6.64851 6.98683 6.60646C7.08835 6.56441 7.18059 6.50277 7.25829 6.42508ZM17.5 11.6667C17.2789 11.6667 17.067 11.7545 16.9107 11.9108C16.7544 12.0671 16.6666 12.2791 16.6666 12.5001V15.8334C16.6666 16.0544 16.5788 16.2664 16.4225 16.4227C16.2663 16.5789 16.0543 16.6667 15.8333 16.6667H4.16663C3.94561 16.6667 3.73365 16.5789 3.57737 16.4227C3.42109 16.2664 3.33329 16.0544 3.33329 15.8334V12.5001C3.33329 12.2791 3.2455 12.0671 3.08921 11.9108C2.93293 11.7545 2.72097 11.6667 2.49996 11.6667C2.27895 11.6667 2.06698 11.7545 1.9107 11.9108C1.75442 12.0671 1.66663 12.2791 1.66663 12.5001V15.8334C1.66663 16.4965 1.93002 17.1323 2.39886 17.6012C2.8677 18.07 3.50358 18.3334 4.16663 18.3334H15.8333C16.4963 18.3334 17.1322 18.07 17.6011 17.6012C18.0699 17.1323 18.3333 16.4965 18.3333 15.8334V12.5001C18.3333 12.2791 18.2455 12.0671 18.0892 11.9108C17.9329 11.7545 17.721 11.6667 17.5 11.6667Z" fill="#798494"/>
</svg>
